<?xml version="1.0" encoding="UTF-8" standalone="no"?>
<!-- Created with Inkscape (http://www.inkscape.org/) -->

<svg
   xmlns:osb="http://www.openswatchbook.org/uri/2009/osb"
   xmlns:dc="http://purl.org/dc/elements/1.1/"
   xmlns:cc="http://creativecommons.org/ns#"
   xmlns:rdf="http://www.w3.org/1999/02/22-rdf-syntax-ns#"
   xmlns:svg="http://www.w3.org/2000/svg"
   xmlns="http://www.w3.org/2000/svg"
   xmlns:xlink="http://www.w3.org/1999/xlink"
   xmlns:sodipodi="http://sodipodi.sourceforge.net/DTD/sodipodi-0.dtd"
   xmlns:inkscape="http://www.inkscape.org/namespaces/inkscape"
   width="384.38068"
   height="460.85919"
   id="svg2"
   version="1.1"
   inkscape:version="0.92.4 5da689c313, 2019-01-14"
   sodipodi:docname="Larmor.svg"
   inkscape:export-filename="/run/media/bryan/Resources/Documents/Base/4. 实验/1. 核磁共振/img/Larmor.png"
   inkscape:export-xdpi="319.95889"
   inkscape:export-ydpi="319.95889">
  <sodipodi:namedview
     id="base"
     pagecolor="#ffffff"
     bordercolor="#666666"
     borderopacity="1.0"
     inkscape:pageopacity="0.0"
     inkscape:pageshadow="2"
     inkscape:zoom="0.98994948"
     inkscape:cx="6.0779105"
     inkscape:cy="224.90747"
     inkscape:document-units="px"
     inkscape:current-layer="layer1"
     showgrid="false"
     inkscape:window-width="1600"
     inkscape:window-height="865"
     inkscape:window-x="0"
     inkscape:window-y="35"
     inkscape:window-maximized="1"
     units="pt"
     fit-margin-top="40"
     fit-margin-left="40"
     fit-margin-bottom="40"
     fit-margin-right="40">
    <inkscape:grid
       spacingy="1"
       spacingx="1"
       originy="-642.22283"
       originx="-142.49432"
       snapvisiblegridlinesonly="true"
       enabled="true"
       visible="true"
       empspacing="5"
       id="grid2985"
       type="xygrid" />
  </sodipodi:namedview>
  <defs
     id="defs4">
    <linearGradient
       id="linearGradient4789"
       osb:paint="solid">
      <stop
         style="stop-color:#000000;stop-opacity:1;"
         offset="0"
         id="stop4787" />
    </linearGradient>
    <marker
       inkscape:stockid="Arrow1Mstart"
       orient="auto"
       refY="0"
       refX="0"
       id="Arrow1Mstart"
       style="overflow:visible">
      <path
         id="path3802"
         d="M 0,0 5,-5 -12.5,0 5,5 Z"
         style="fill-rule:evenodd;stroke:#000000;stroke-width:1.00000003pt"
         transform="matrix(0.4,0,0,0.4,4,0)"
         inkscape:connector-curvature="0" />
    </marker>
    <marker
       inkscape:stockid="Arrow1Mend"
       orient="auto"
       refY="0"
       refX="0"
       id="Arrow1Mend"
       style="overflow:visible">
      <path
         id="path3805"
         d="M 0,0 5,-5 -12.5,0 5,5 Z"
         style="fill-rule:evenodd;stroke:#000000;stroke-width:1.00000003pt"
         transform="matrix(-0.4,0,0,-0.4,-4,0)"
         inkscape:connector-curvature="0" />
    </marker>
    <marker
       inkscape:stockid="Arrow1Mend"
       orient="auto"
       refY="0"
       refX="0"
       id="Arrow1Mend-4"
       style="overflow:visible">
      <path
         inkscape:connector-curvature="0"
         id="path3805-5"
         d="M 0,0 5,-5 -12.5,0 5,5 Z"
         style="fill-rule:evenodd;stroke:#000000;stroke-width:1.00000003pt"
         transform="matrix(-0.4,0,0,-0.4,-4,0)" />
    </marker>
    <defs
       id="defs4019">
      <g
         id="g4021">
        <symbol
           style="overflow:visible"
           overflow="visible"
           id="textext-3752d021-0">
          <path
             inkscape:connector-curvature="0"
             style="stroke:none"
             d="m 2.296875,-3.5 c 0.0625,-0.203125 0.15625,-0.59375 0.15625,-0.640625 0,-0.171875 -0.125,-0.265625 -0.296875,-0.265625 -0.015625,0 -0.296875,0.015625 -0.390625,0.359375 l -1.4375,5.765625 c -0.03125,0.125 -0.03125,0.140625 -0.03125,0.171875 0,0.140625 0.109375,0.265625 0.28125,0.265625 0.203125,0 0.328125,-0.1875 0.34375,-0.21875 C 0.96875,1.859375 1.09375,1.328125 1.46875,-0.203125 1.796875,0.0625 2.25,0.109375 2.4375,0.109375 c 0.703125,0 1.09375,-0.453125 1.328125,-0.734375 0.09375,0.453125 0.46875,0.734375 0.90625,0.734375 0.34375,0 0.578125,-0.234375 0.734375,-0.546875 0.171875,-0.359375 0.296875,-0.96875 0.296875,-0.984375 0,-0.109375 -0.09375,-0.109375 -0.125,-0.109375 -0.09375,0 -0.109375,0.046875 -0.140625,0.1875 -0.15625,0.640625 -0.34375,1.234375 -0.75,1.234375 -0.265625,0 -0.296875,-0.265625 -0.296875,-0.453125 0,-0.21875 0.109375,-0.6875 0.1875,-1.046875 L 4.859375,-2.6875 C 4.890625,-2.828125 5,-3.203125 5.03125,-3.359375 5.078125,-3.59375 5.1875,-3.96875 5.1875,-4.03125 c 0,-0.171875 -0.140625,-0.265625 -0.296875,-0.265625 -0.046875,0 -0.3125,0.015625 -0.390625,0.34375 l -0.46875,1.875 c -0.109375,0.5 -0.21875,0.90625 -0.25,1.015625 -0.015625,0.046875 -0.484375,0.953125 -1.296875,0.953125 -0.5,0 -0.734375,-0.328125 -0.734375,-0.875 0,-0.28125 0.0625,-0.5625 0.140625,-0.84375 z m 0,0"
             id="path4024" />
        </symbol>
        <symbol
           style="overflow:visible"
           overflow="visible"
           id="textext-3752d021-1">
          <path
             inkscape:connector-curvature="0"
             style="stroke:none"
             d="m 5.140625,-6.8125 c 0,0 0,-0.109375 -0.125,-0.109375 -0.15625,0 -1.09375,0.09375 -1.265625,0.109375 -0.078125,0.015625 -0.140625,0.0625 -0.140625,0.1875 0,0.125 0.09375,0.125 0.234375,0.125 0.484375,0 0.5,0.0625 0.5,0.171875 L 4.3125,-6.125 3.71875,-3.765625 C 3.53125,-4.140625 3.25,-4.40625 2.796875,-4.40625 c -1.15625,0 -2.390625,1.46875 -2.390625,2.921875 0,0.9375 0.546875,1.59375 1.3125,1.59375 0.203125,0 0.703125,-0.046875 1.296875,-0.75 0.078125,0.421875 0.4375,0.75 0.90625,0.75 0.359375,0 0.578125,-0.234375 0.75,-0.546875 0.15625,-0.359375 0.296875,-0.96875 0.296875,-0.984375 0,-0.109375 -0.09375,-0.109375 -0.125,-0.109375 -0.09375,0 -0.109375,0.046875 -0.140625,0.1875 -0.171875,0.640625 -0.34375,1.234375 -0.75,1.234375 -0.28125,0 -0.296875,-0.265625 -0.296875,-0.453125 0,-0.25 0.015625,-0.3125 0.046875,-0.484375 z m -2.0625,5.625 C 3.015625,-1 3.015625,-0.984375 2.875,-0.8125 2.4375,-0.265625 2.03125,-0.109375 1.75,-0.109375 c -0.5,0 -0.640625,-0.546875 -0.640625,-0.9375 0,-0.5 0.3125,-1.71875 0.546875,-2.1875 0.3125,-0.578125 0.75,-0.953125 1.15625,-0.953125 0.640625,0 0.78125,0.8125 0.78125,0.875 0,0.0625 -0.015625,0.125 -0.03125,0.171875 z m 0,0"
             id="path4027" />
        </symbol>
        <symbol
           style="overflow:visible"
           overflow="visible"
           id="textext-3752d021-2">
          <path
             inkscape:connector-curvature="0"
             style="stroke:none"
             d="m 6.03125,-3.703125 c 0,-0.453125 -0.171875,-0.703125 -0.40625,-0.703125 -0.25,0 -0.515625,0.234375 -0.515625,0.46875 0,0.09375 0.046875,0.203125 0.140625,0.296875 0.171875,0.15625 0.359375,0.421875 0.359375,0.84375 0,0.390625 -0.203125,0.96875 -0.5,1.421875 C 4.8125,-0.953125 4.4375,-0.609375 3.96875,-0.609375 3.40625,-0.609375 3.09375,-0.96875 3,-1.5 c 0.109375,-0.265625 0.34375,-0.90625 0.34375,-1.1875 0,-0.109375 -0.046875,-0.21875 -0.1875,-0.21875 -0.078125,0 -0.1875,0.03125 -0.265625,0.171875 C 2.78125,-2.53125 2.65625,-1.890625 2.65625,-1.53125 2.328125,-1.0625 1.9375,-0.609375 1.3125,-0.609375 c -0.671875,0 -0.875,-0.59375 -0.875,-1.140625 0,-1.25 1.015625,-2.296875 1.015625,-2.421875 0,-0.109375 -0.078125,-0.1875 -0.1875,-0.1875 -0.125,0 -0.203125,0.125 -0.265625,0.21875 -0.5,0.734375 -0.875,1.921875 -0.875,2.828125 0,0.6875 0.21875,1.421875 1.046875,1.421875 0.703125,0 1.171875,-0.5 1.53125,-1.046875 0.09375,0.578125 0.484375,1.046875 1.09375,1.046875 0.78125,0 1.25,-0.609375 1.609375,-1.359375 0.25,-0.484375 0.625,-1.84375 0.625,-2.453125 z m 0,0"
             id="path4030" />
        </symbol>
        <symbol
           style="overflow:visible"
           overflow="visible"
           id="textext-3752d021-3">
          <path
             inkscape:connector-curvature="0"
             style="stroke:none"
             d="m 2.046875,-3.984375 h 0.9375 c 0.203125,0 0.3125,0 0.3125,-0.203125 0,-0.109375 -0.109375,-0.109375 -0.28125,-0.109375 h -0.875 C 2.5,-5.71875 2.546875,-5.90625 2.546875,-5.96875 c 0,-0.171875 -0.125,-0.265625 -0.296875,-0.265625 -0.03125,0 -0.3125,0 -0.390625,0.359375 L 1.46875,-4.296875 h -0.9375 c -0.203125,0 -0.296875,0 -0.296875,0.1875 0,0.125 0.078125,0.125 0.28125,0.125 h 0.875 C 0.671875,-1.15625 0.625,-0.984375 0.625,-0.8125 0.625,-0.265625 1,0.109375 1.546875,0.109375 2.5625,0.109375 3.125,-1.34375 3.125,-1.421875 3.125,-1.53125 3.046875,-1.53125 3.015625,-1.53125 2.921875,-1.53125 2.90625,-1.5 2.859375,-1.390625 2.4375,-0.34375 1.90625,-0.109375 1.5625,-0.109375 c -0.203125,0 -0.3125,-0.125 -0.3125,-0.453125 0,-0.25 0.03125,-0.3125 0.0625,-0.484375 z m 0,0"
             id="path4033" />
        </symbol>
        <symbol
           style="overflow:visible"
           overflow="visible"
           id="textext-3752d021-4">
          <path
             inkscape:connector-curvature="0"
             style="stroke:none"
             d="m 4.53125,-4.984375 c 0,-0.65625 -0.171875,-2.046875 -1.1875,-2.046875 -1.390625,0 -2.921875,2.8125 -2.921875,5.09375 0,0.9375 0.28125,2.046875 1.1875,2.046875 1.40625,0 2.921875,-2.859375 2.921875,-5.09375 z M 1.46875,-3.625 C 1.640625,-4.25 1.84375,-5.046875 2.25,-5.765625 2.515625,-6.25 2.875,-6.8125 3.328125,-6.8125 c 0.484375,0 0.546875,0.640625 0.546875,1.203125 0,0.5 -0.078125,1 -0.3125,1.984375 z m 2,0.328125 C 3.359375,-2.84375 3.15625,-2 2.765625,-1.28125 c -0.34375,0.6875 -0.71875,1.171875 -1.15625,1.171875 -0.328125,0 -0.53125,-0.296875 -0.53125,-1.21875 0,-0.421875 0.0625,-1 0.3125,-1.96875 z m 0,0"
             id="path4036" />
        </symbol>
        <symbol
           style="overflow:visible"
           overflow="visible"
           id="textext-3752d021-5">
          <path
             inkscape:connector-curvature="0"
             style="stroke:none"
             d="m 2.9375,-3.71875 h 1.671875 c 0.125,0 0.484375,0 0.484375,-0.34375 0,-0.234375 -0.203125,-0.234375 -0.40625,-0.234375 H 1.90625 c -0.203125,0 -0.59375,0 -1.03125,0.46875 -0.328125,0.359375 -0.609375,0.84375 -0.609375,0.890625 0,0.015625 0,0.109375 0.125,0.109375 0.078125,0 0.09375,-0.046875 0.15625,-0.125 C 1.03125,-3.71875 1.609375,-3.71875 1.8125,-3.71875 h 0.828125 l -0.96875,3.203125 C 1.625,-0.40625 1.5625,-0.1875 1.5625,-0.15625 c 0,0.109375 0.078125,0.28125 0.296875,0.28125 0.328125,0 0.375,-0.28125 0.40625,-0.4375 z m 0,0"
             id="path4039" />
        </symbol>
        <symbol
           style="overflow:visible"
           overflow="visible"
           id="textext-3752d021-6">
          <path
             inkscape:connector-curvature="0"
             style="stroke:none"
             d="M 0.828125,-0.953125 C 0.90625,-0.5 1.125,0.078125 1.71875,0.078125 1.9375,0.078125 2.1875,0 2.453125,-0.171875 2.5625,-0.234375 2.921875,-0.5 2.921875,-0.578125 c 0,-0.046875 -0.046875,-0.125 -0.109375,-0.125 -0.03125,0 -0.046875,0 -0.15625,0.09375 -0.296875,0.265625 -0.609375,0.5 -0.921875,0.5 C 1.25,-0.109375 1.25,-0.921875 1.25,-1.0625 c 0,-0.09375 0,-0.09375 0.015625,-0.234375 0.015625,-0.0625 0.015625,-0.078125 0.09375,-0.15625 0.375,-0.359375 1.703125,-1.640625 1.703125,-2.84375 0,-0.109375 0,-0.609375 -0.46875,-0.609375 C 2.015625,-4.90625 1.546875,-4 1.4375,-3.796875 1.140625,-3.203125 0.96875,-2.640625 0.90625,-2.28125 0.796875,-1.8125 0.796875,-1.578125 0.796875,-1.234375 0.75,-1.1875 0.34375,-0.828125 0.28125,-0.78125 c -0.109375,0.109375 -0.125,0.109375 -0.125,0.15625 0,0.046875 0.0625,0.125 0.125,0.125 0.046875,0 0.234375,-0.171875 0.28125,-0.21875 z m 0.5,-0.796875 C 1.453125,-2.453125 2,-4.703125 2.59375,-4.703125 c 0.15625,0 0.25,0.109375 0.25,0.359375 0,0.078125 0,0.703125 -0.609375,1.5625 C 1.875,-2.28125 1.5,-1.90625 1.328125,-1.75 Z m 0,0"
             id="path4042" />
        </symbol>
        <symbol
           style="overflow:visible"
           overflow="visible"
           id="textext-3752d021-7">
          <path
             inkscape:connector-curvature="0"
             style="stroke:none"
             d="m 2.875,-4.1875 c 0.0625,-0.25 0.078125,-0.328125 0.71875,-0.328125 0.21875,0 0.28125,0 0.28125,-0.140625 0,-0.015625 0,-0.109375 -0.109375,-0.109375 -0.15625,0 -0.34375,0.015625 -0.515625,0.03125 -0.171875,0 -0.390625,0 -0.5625,0 -0.140625,0 -0.328125,0 -0.484375,0 -0.140625,0 -0.3125,-0.03125 -0.453125,-0.03125 -0.03125,0 -0.140625,0 -0.140625,0.15625 0,0.09375 0.078125,0.09375 0.21875,0.09375 0.015625,0 0.140625,0 0.265625,0.015625 0.15625,0.015625 0.171875,0.03125 0.171875,0.109375 0,0 0,0.046875 -0.03125,0.140625 l -0.9375,3.703125 C 1.234375,-0.3125 1.21875,-0.25 0.6875,-0.25 c -0.109375,0 -0.203125,0 -0.203125,0.140625 C 0.484375,0 0.5625,0 0.6875,0 h 3.5 c 0.1875,0 0.1875,0 0.25,-0.140625 0.0625,-0.1875 0.59375,-1.53125 0.59375,-1.59375 0,-0.015625 -0.015625,-0.09375 -0.125,-0.09375 -0.078125,0 -0.09375,0.03125 -0.140625,0.140625 C 4.5,-1.03125 4.1875,-0.25 2.921875,-0.25 H 2.125 c -0.203125,0 -0.21875,-0.015625 -0.21875,-0.078125 0,0 0,-0.03125 0.03125,-0.140625 z m 0,0"
             id="path4045" />
        </symbol>
        <symbol
           style="overflow:visible"
           overflow="visible"
           id="textext-3752d021-8">
          <path
             inkscape:connector-curvature="0"
             style="stroke:none"
             d="M 2.765625,-3.734375 V -6.375 h 1.8125 c 1.015625,0 1.1875,0.796875 1.1875,1.25 0,0.765625 -0.46875,1.390625 -1.4375,1.390625 z M 5.46875,-3.5625 C 6.546875,-3.765625 7.1875,-4.359375 7.1875,-5.125 c 0,-0.921875 -0.875,-1.71875 -2.46875,-1.71875 H 0.390625 V -6.375 H 1.46875 v 5.90625 H 0.390625 V 0 h 4.625 C 6.671875,0 7.5,-0.875 7.5,-1.859375 7.5,-2.8125 6.65625,-3.484375 5.46875,-3.5625 Z M 4.609375,-0.46875 H 2.765625 V -3.375 h 1.9375 c 0.203125,0 0.671875,0 1.015625,0.421875 0.328125,0.421875 0.328125,0.984375 0.328125,1.09375 0,0.109375 0,1.390625 -1.4375,1.390625 z m 0,0"
             id="path4048" />
        </symbol>
        <symbol
           style="overflow:visible"
           overflow="visible"
           id="textext-3752d021-9">
          <path
             inkscape:connector-curvature="0"
             style="stroke:none"
             d="M 6.40625,-2.734375 H 5.9375 c -0.078125,0.6875 -0.25,2.265625 -2.03125,2.265625 H 2.875 V -6.375 H 4.234375 V -6.84375 C 3.78125,-6.8125 2.703125,-6.8125 2.21875,-6.8125 c -0.4375,0 -1.453125,0 -1.828125,-0.03125 V -6.375 H 1.46875 v 5.90625 H 0.390625 V 0 H 6.09375 Z m 0,0"
             id="path4051" />
        </symbol>
      </g>
    </defs>
    <marker
       inkscape:stockid="Arrow1Mend"
       orient="auto"
       refY="0"
       refX="0"
       id="Arrow1Mend-3"
       style="overflow:visible">
      <path
         id="path3805-6"
         d="M 0,0 5,-5 -12.5,0 5,5 Z"
         style="fill-rule:evenodd;stroke:#000000;stroke-width:1.00000003pt"
         transform="matrix(-0.4,0,0,-0.4,-4,0)"
         inkscape:connector-curvature="0" />
    </marker>
    <marker
       inkscape:stockid="Arrow1Mend"
       orient="auto"
       refY="0"
       refX="0"
       id="Arrow1Mend-5"
       style="overflow:visible">
      <path
         id="path3805-3"
         d="M 0,0 5,-5 -12.5,0 5,5 Z"
         style="fill-rule:evenodd;stroke:#000000;stroke-width:1.00000003pt"
         transform="matrix(-0.4,0,0,-0.4,-4,0)"
         inkscape:connector-curvature="0" />
    </marker>
    <marker
       inkscape:stockid="Arrow1Mend"
       orient="auto"
       refY="0"
       refX="0"
       id="Arrow1Mend-6"
       style="overflow:visible">
      <path
         id="path3805-2"
         d="M 0,0 5,-5 -12.5,0 5,5 Z"
         style="fill-rule:evenodd;stroke:#000000;stroke-width:1.00000003pt"
         transform="matrix(-0.4,0,0,-0.4,-4,0)"
         inkscape:connector-curvature="0" />
    </marker>
    <marker
       inkscape:stockid="Arrow1Mend"
       orient="auto"
       refY="0"
       refX="0"
       id="Arrow1Mend-4-1"
       style="overflow:visible">
      <path
         inkscape:connector-curvature="0"
         id="path3805-5-2"
         d="M 0,0 5,-5 -12.5,0 5,5 Z"
         style="fill-rule:evenodd;stroke:#000000;stroke-width:1.00000003pt"
         transform="matrix(-0.4,0,0,-0.4,-4,0)" />
    </marker>
    <marker
       inkscape:stockid="Arrow1Mend"
       orient="auto"
       refY="0"
       refX="0"
       id="Arrow1Mend-4-1-3"
       style="overflow:visible">
      <path
         inkscape:connector-curvature="0"
         id="path3805-5-2-6"
         d="M 0,0 5,-5 -12.5,0 5,5 Z"
         style="fill-rule:evenodd;stroke:#000000;stroke-width:1.00000003pt"
         transform="matrix(-0.4,0,0,-0.4,-4,0)" />
    </marker>
  </defs>
  <metadata
     id="metadata7">
    <rdf:RDF>
      <cc:Work
         rdf:about="">
        <dc:format>image/svg+xml</dc:format>
        <dc:type
           rdf:resource="http://purl.org/dc/dcmitype/StillImage" />
        <dc:title />
      </cc:Work>
    </rdf:RDF>
  </metadata>
  <g
     inkscape:groupmode="layer"
     id="layer2"
     inkscape:label="B-vector"
     transform="translate(-154.36932,-50.132253)">
    <path
       transform="translate(11.875,100.8521)"
       style="fill:none;stroke:#000000;stroke-width:2;stroke-linecap:butt;stroke-linejoin:miter;stroke-miterlimit:4;stroke-dasharray:none;stroke-opacity:1;marker-end:url(#Arrow1Mend)"
       d="M 334.85643,366.64789 V 113.27231"
       id="path3790"
       inkscape:connector-curvature="0"
       sodipodi:nodetypes="cc" />
  </g>
  <g
     inkscape:label="Camada"
     inkscape:groupmode="layer"
     id="layer1"
     transform="translate(-142.49432,50.719848)">
    <ellipse
       ry="40"
       rx="150"
       cy="112.36218"
       cx="335"
       style="fill:#f3e9b0;fill-opacity:1;stroke:#2532ed;stroke-width:3.75;stroke-miterlimit:4;stroke-dasharray:none;stroke-dashoffset:0;stroke-opacity:1"
       id="path2987" />
    <path
       style="fill:none;stroke:#000000;stroke-width:2.5;stroke-linecap:butt;stroke-linejoin:miter;stroke-miterlimit:4;stroke-dasharray:5, 2.5;stroke-dashoffset:0;stroke-opacity:1"
       d="M 183.57143,112.36218 335,369.50504"
       id="path3759"
       inkscape:connector-curvature="0"
       sodipodi:nodetypes="cc" />
    <path
       style="fill:none;stroke:#000000;stroke-width:2.5;stroke-linecap:butt;stroke-linejoin:miter;stroke-miterlimit:4;stroke-dasharray:5, 2.5;stroke-dashoffset:0;stroke-opacity:1"
       d="M 485,113.07647 335,369.50504"
       id="path3761"
       inkscape:connector-curvature="0"
       sodipodi:nodetypes="cc" />
    <path
       style="fill:none;stroke:#000000;stroke-width:2.5;stroke-linecap:butt;stroke-linejoin:miter;stroke-miterlimit:4;stroke-dasharray:none;stroke-opacity:1;marker-start:url(#Arrow1Mstart)"
       d="M 264.74618,149.11232 335,369.50504"
       id="path4628"
       inkscape:connector-curvature="0"
       sodipodi:nodetypes="cc" />
    <path
       sodipodi:type="arc"
       style="fill:none;stroke:#000000;stroke-width:2;stroke-miterlimit:4;stroke-dasharray:none;stroke-dashoffset:0;stroke-opacity:1"
       id="path3809"
       sodipodi:cx="335.10138"
       sodipodi:cy="303.77567"
       sodipodi:rx="20.608103"
       sodipodi:ry="6.4135499"
       d="m 314.99999,302.36219 a 20.608103,6.4135499 0 0 1 19.99999,-5"
       sodipodi:start="3.3638063"
       sodipodi:end="4.7074686"
       sodipodi:open="true" />
    <g
       id="g4062"
       style="fill:#000000;fill-opacity:1"
       transform="matrix(5.4237293,0,0,5.4237293,2.796608,-27.637817)">
      <use
         id="use4064"
         y="9.9630003"
         x="65.109001"
         xlink:href="#textext-3752d021-8"
         width="744.09448"
         height="1052.3622" />
    </g>
    <g
       id="g4096"
       style="fill:#000000;fill-opacity:1"
       transform="matrix(5.4237293,0,0,5.4237293,-876.39226,206.38155)">
      <use
         id="use4098"
         y="9.9630003"
         x="217.75583"
         xlink:href="#textext-3752d021-4"
         width="744.09448"
         height="1052.3622" />
    </g>
    <g
       id="g3901"
       transform="translate(-31.79695,-369.17693)">
      <g
         word-spacing="normal"
         letter-spacing="normal"
         font-size-adjust="none"
         font-stretch="normal"
         font-weight="normal"
         font-variant="normal"
         font-style="normal"
         stroke-miterlimit="10.433"
         xml:space="preserve"
         transform="matrix(0.99107143,0,0,-0.99107143,-173.4375,896.35658)"
         id="content"
         style="font-style:normal;font-variant:normal;font-weight:normal;font-stretch:normal;letter-spacing:normal;word-spacing:normal;text-anchor:start;fill:none;fill-opacity:1;fill-rule:evenodd;stroke:#000000;stroke-linecap:butt;stroke-linejoin:miter;stroke-miterlimit:10.43299961;stroke-dasharray:none;stroke-dashoffset:0;stroke-opacity:1"><path
           id="path3898"
           d="m 469.22,422.75 0.03,0.12 0.03,0.13 0.03,0.13 0.03,0.14 0.04,0.14 0.03,0.14 0.07,0.29 0.07,0.29 0.07,0.29 0.07,0.29 0.03,0.14 0.04,0.14 0.03,0.14 0.03,0.14 0.03,0.13 0.03,0.12 0.02,0.12 0.03,0.12 0.02,0.11 0.03,0.1 0.02,0.1 0.01,0.09 0.02,0.08 0.01,0.08 0.01,0.07 0.01,0.05 v 0.05 l 0.01,0.04 c 0,1.04 -0.8,2.18 -2.35,2.18 -2.59,0 -3.23,-2.48 -3.39,-3.07 l -6.62,-26.47 c -0.19,-0.8 -0.19,-1.1 -0.19,-1.28 0,-1.61 1.28,-2.21 2.33,-2.21 0.95,0 2.29,0.55 3,1.96 0.29,0.59 1.94,7.42 2.28,8.97 2.05,-0.82 4.3,-0.82 4.94,-0.82 1.68,0 3.98,0.32 6.97,3 1.2,-2.29 4,-3 5.84,-3 1.84,0 3.28,1.05 4.33,2.85 1.25,2 1.89,4.68 1.89,4.93 0,0.71 -0.75,0.71 -1.19,0.71 -0.56,0 -0.75,0 -1,-0.25 -0.11,-0.11 -0.11,-0.21 -0.41,-1.46 -0.98,-3.98 -2.14,-4.98 -3.39,-4.98 -0.54,0 -1.14,0.2 -1.14,1.84 0,0.85 0.21,1.64 0.71,3.64 l 1.29,5.08 c 0.25,1.1 0.75,3.14 1.1,4.49 0.29,1.15 0.79,3.14 0.79,3.48 0,1.05 -0.79,2.2 -2.34,2.2 -1,0 -2.73,-0.61 -3.28,-2.64 l -3.44,-13.81 c -0.2,-0.89 -1.05,-1.73 -1.95,-2.48 -1.6,-1.35 -3.1,-1.8 -4.44,-1.8 -3.37,0 -3.69,2.45 -3.69,3.94 0,1.34 0.32,2.54 0.5,3.43 z"
           inkscape:connector-curvature="0"
           style="fill:#000000;stroke-width:0" /></g>    </g>
    <g
       id="g5310"
       transform="translate(245.46707,-87.883273)">
      <g
         word-spacing="normal"
         letter-spacing="normal"
         font-size-adjust="none"
         font-stretch="normal"
         font-weight="normal"
         font-variant="normal"
         font-style="normal"
         stroke-miterlimit="10.433"
         xml:space="preserve"
         transform="matrix(0.54911526,0,0,-0.54911526,-96.09517,345.64439)"
         id="g5308"
         style="font-style:normal;font-variant:normal;font-weight:normal;font-stretch:normal;letter-spacing:normal;word-spacing:normal;text-anchor:start;fill:none;fill-opacity:1;fill-rule:evenodd;stroke:#000000;stroke-linecap:butt;stroke-linejoin:miter;stroke-miterlimit:10.43299961;stroke-dasharray:none;stroke-dashoffset:0;stroke-opacity:1"><path
           id="path5306"
           d="m 481.88,422.09 v 0.47 0.51 l -0.01,0.55 -0.02,0.58 -0.02,0.6 -0.03,0.63 -0.05,0.65 -0.07,0.66 -0.08,0.68 -0.1,0.69 -0.12,0.7 -0.15,0.7 -0.17,0.7 -0.21,0.7 -0.23,0.69 -0.27,0.68 -0.3,0.66 -0.34,0.65 -0.38,0.62 -0.42,0.6 -0.46,0.58 -0.51,0.54 -0.27,0.26 -0.29,0.24 -0.3,0.24 -0.31,0.23 -0.32,0.22 -0.34,0.21 -0.35,0.19 -0.37,0.19 -0.38,0.17 -0.39,0.16 -0.41,0.15 -0.43,0.13 -0.44,0.12 -0.45,0.1 -0.47,0.09 -0.49,0.07 -0.5,0.06 -0.52,0.05 -0.54,0.02 -0.55,0.01 v -1.8 c 1.84,0 3.89,-0.95 4.82,-3.14 0.86,-1.84 0.86,-7.12 0.86,-11.22 0,-2.78 0,-7.31 -0.36,-9.9 -0.68,-4.64 -3.82,-5.33 -5.32,-5.33 v 0 c -1.8,0 -4.58,1.09 -5.24,4.73 -0.44,2.58 -0.44,7.77 -0.44,10.5 0,3.6 0,6.83 0.4,9.43 0.59,4.43 4.09,4.93 5.28,4.93 v 1.8 c -12,0 -12.07,-11.86 -12.07,-16.75 0,-4.94 0.07,-16.44 12.07,-16.44 11.95,0 12.06,11.46 12.06,16.44 z"
           inkscape:connector-curvature="0"
           style="fill:#000000;stroke-width:0" /></g>    </g>
  </g>
  <g
     inkscape:groupmode="layer"
     id="layer3"
     inkscape:label="B-extra"
     transform="translate(-154.36932,-50.132253)">
    <path
       style="fill:none;stroke:#000000;stroke-width:2;stroke-linecap:butt;stroke-linejoin:miter;stroke-miterlimit:4;stroke-dasharray:none;stroke-opacity:1;marker-end:url(#Arrow1Mend-6)"
       d="M 346.73143,214.12441 V 107.50555"
       id="path3790-9"
       inkscape:connector-curvature="0"
       sodipodi:nodetypes="cc" />
    <path
       style="fill:none;stroke:#000000;stroke-width:2.5;stroke-linecap:butt;stroke-linejoin:miter;stroke-miterlimit:4;stroke-dasharray:none;stroke-opacity:1;marker-end:url(#Arrow1Mend-4-1)"
       d="m 423.29742,247.82253 -14.69234,2.36258"
       id="path5002"
       inkscape:connector-curvature="0"
       sodipodi:nodetypes="cc" />
    <path
       style="fill:none;stroke:#000000;stroke-width:2.5;stroke-linecap:butt;stroke-linejoin:miter;stroke-miterlimit:4;stroke-dasharray:none;stroke-opacity:1;marker-end:url(#Arrow1Mend-4-1-3)"
       d="m 284.62994,177.4009 14.69234,-2.36258"
       id="path5002-0"
       inkscape:connector-curvature="0"
       sodipodi:nodetypes="cc" />
  </g>
</svg>
