<?xml version="1.0" encoding="UTF-8" standalone="no"?>
<!-- Created with Inkscape (http://www.inkscape.org/) -->

<svg
   xmlns:dc="http://purl.org/dc/elements/1.1/"
   xmlns:cc="http://creativecommons.org/ns#"
   xmlns:rdf="http://www.w3.org/1999/02/22-rdf-syntax-ns#"
   xmlns:svg="http://www.w3.org/2000/svg"
   xmlns="http://www.w3.org/2000/svg"
   xmlns:xlink="http://www.w3.org/1999/xlink"
   xmlns:sodipodi="http://sodipodi.sourceforge.net/DTD/sodipodi-0.dtd"
   xmlns:inkscape="http://www.inkscape.org/namespaces/inkscape"
   width="693.75"
   height="1195.1421"
   id="svg2"
   version="1.1"
   inkscape:version="0.48.3.1 r9886"
   sodipodi:docname="Larmor_01.svg">
  <sodipodi:namedview
     id="base"
     pagecolor="#ffffff"
     bordercolor="#666666"
     borderopacity="1.0"
     inkscape:pageopacity="0.0"
     inkscape:pageshadow="2"
     inkscape:zoom="0.24748737"
     inkscape:cx="412.574"
     inkscape:cy="504.1394"
     inkscape:document-units="px"
     inkscape:current-layer="layer1"
     showgrid="true"
     inkscape:window-width="1366"
     inkscape:window-height="744"
     inkscape:window-x="0"
     inkscape:window-y="24"
     inkscape:window-maximized="1"
     units="pt"
     fit-margin-top="40"
     fit-margin-left="40"
     fit-margin-bottom="40"
     fit-margin-right="40">
    <inkscape:grid
       type="xygrid"
       id="grid2985"
       empspacing="5"
       visible="true"
       enabled="true"
       snapvisiblegridlinesonly="true"
       originx="11.875px"
       originy="41.927827px" />
  </sodipodi:namedview>
  <defs
     id="defs4">
    <marker
       inkscape:stockid="Arrow1Mstart"
       orient="auto"
       refY="0"
       refX="0"
       id="Arrow1Mstart"
       style="overflow:visible">
      <path
         id="path3802"
         d="M 0,0 5,-5 -12.5,0 5,5 0,0 z"
         style="fill-rule:evenodd;stroke:#000000;stroke-width:1pt"
         transform="matrix(0.4,0,0,0.4,4,0)"
         inkscape:connector-curvature="0" />
    </marker>
    <marker
       inkscape:stockid="Arrow1Mend"
       orient="auto"
       refY="0"
       refX="0"
       id="Arrow1Mend"
       style="overflow:visible">
      <path
         id="path3805"
         d="M 0,0 5,-5 -12.5,0 5,5 0,0 z"
         style="fill-rule:evenodd;stroke:#000000;stroke-width:1pt"
         transform="matrix(-0.4,0,0,-0.4,-4,0)"
         inkscape:connector-curvature="0" />
    </marker>
    <marker
       inkscape:stockid="Arrow1Mend"
       orient="auto"
       refY="0"
       refX="0"
       id="Arrow1Mend-4"
       style="overflow:visible">
      <path
         inkscape:connector-curvature="0"
         id="path3805-5"
         d="M 0,0 5,-5 -12.5,0 5,5 0,0 z"
         style="fill-rule:evenodd;stroke:#000000;stroke-width:1pt"
         transform="matrix(-0.4,0,0,-0.4,-4,0)" />
    </marker>
    <defs
       id="defs4019">
      <g
         id="g4021">
        <symbol
           style="overflow:visible"
           overflow="visible"
           id="textext-3752d021-0">
          <path
             inkscape:connector-curvature="0"
             style="stroke:none"
             d="m 2.296875,-3.5 c 0.0625,-0.203125 0.15625,-0.59375 0.15625,-0.640625 0,-0.171875 -0.125,-0.265625 -0.296875,-0.265625 -0.015625,0 -0.296875,0.015625 -0.390625,0.359375 l -1.4375,5.765625 c -0.03125,0.125 -0.03125,0.140625 -0.03125,0.171875 0,0.140625 0.109375,0.265625 0.28125,0.265625 0.203125,0 0.328125,-0.1875 0.34375,-0.21875 C 0.96875,1.859375 1.09375,1.328125 1.46875,-0.203125 1.796875,0.0625 2.25,0.109375 2.4375,0.109375 c 0.703125,0 1.09375,-0.453125 1.328125,-0.734375 0.09375,0.453125 0.46875,0.734375 0.90625,0.734375 0.34375,0 0.578125,-0.234375 0.734375,-0.546875 0.171875,-0.359375 0.296875,-0.96875 0.296875,-0.984375 0,-0.109375 -0.09375,-0.109375 -0.125,-0.109375 -0.09375,0 -0.109375,0.046875 -0.140625,0.1875 -0.15625,0.640625 -0.34375,1.234375 -0.75,1.234375 -0.265625,0 -0.296875,-0.265625 -0.296875,-0.453125 0,-0.21875 0.109375,-0.6875 0.1875,-1.046875 L 4.859375,-2.6875 C 4.890625,-2.828125 5,-3.203125 5.03125,-3.359375 5.078125,-3.59375 5.1875,-3.96875 5.1875,-4.03125 c 0,-0.171875 -0.140625,-0.265625 -0.296875,-0.265625 -0.046875,0 -0.3125,0.015625 -0.390625,0.34375 l -0.46875,1.875 c -0.109375,0.5 -0.21875,0.90625 -0.25,1.015625 -0.015625,0.046875 -0.484375,0.953125 -1.296875,0.953125 -0.5,0 -0.734375,-0.328125 -0.734375,-0.875 0,-0.28125 0.0625,-0.5625 0.140625,-0.84375 z m 0,0"
             id="path4024" />
        </symbol>
        <symbol
           style="overflow:visible"
           overflow="visible"
           id="textext-3752d021-1">
          <path
             inkscape:connector-curvature="0"
             style="stroke:none"
             d="m 5.140625,-6.8125 c 0,0 0,-0.109375 -0.125,-0.109375 -0.15625,0 -1.09375,0.09375 -1.265625,0.109375 -0.078125,0.015625 -0.140625,0.0625 -0.140625,0.1875 0,0.125 0.09375,0.125 0.234375,0.125 0.484375,0 0.5,0.0625 0.5,0.171875 L 4.3125,-6.125 3.71875,-3.765625 C 3.53125,-4.140625 3.25,-4.40625 2.796875,-4.40625 c -1.15625,0 -2.390625,1.46875 -2.390625,2.921875 0,0.9375 0.546875,1.59375 1.3125,1.59375 0.203125,0 0.703125,-0.046875 1.296875,-0.75 0.078125,0.421875 0.4375,0.75 0.90625,0.75 0.359375,0 0.578125,-0.234375 0.75,-0.546875 0.15625,-0.359375 0.296875,-0.96875 0.296875,-0.984375 0,-0.109375 -0.09375,-0.109375 -0.125,-0.109375 -0.09375,0 -0.109375,0.046875 -0.140625,0.1875 -0.171875,0.640625 -0.34375,1.234375 -0.75,1.234375 -0.28125,0 -0.296875,-0.265625 -0.296875,-0.453125 0,-0.25 0.015625,-0.3125 0.046875,-0.484375 z m -2.0625,5.625 C 3.015625,-1 3.015625,-0.984375 2.875,-0.8125 2.4375,-0.265625 2.03125,-0.109375 1.75,-0.109375 c -0.5,0 -0.640625,-0.546875 -0.640625,-0.9375 0,-0.5 0.3125,-1.71875 0.546875,-2.1875 0.3125,-0.578125 0.75,-0.953125 1.15625,-0.953125 0.640625,0 0.78125,0.8125 0.78125,0.875 0,0.0625 -0.015625,0.125 -0.03125,0.171875 z m 0,0"
             id="path4027" />
        </symbol>
        <symbol
           style="overflow:visible"
           overflow="visible"
           id="textext-3752d021-2">
          <path
             inkscape:connector-curvature="0"
             style="stroke:none"
             d="m 6.03125,-3.703125 c 0,-0.453125 -0.171875,-0.703125 -0.40625,-0.703125 -0.25,0 -0.515625,0.234375 -0.515625,0.46875 0,0.09375 0.046875,0.203125 0.140625,0.296875 0.171875,0.15625 0.359375,0.421875 0.359375,0.84375 0,0.390625 -0.203125,0.96875 -0.5,1.421875 C 4.8125,-0.953125 4.4375,-0.609375 3.96875,-0.609375 3.40625,-0.609375 3.09375,-0.96875 3,-1.5 c 0.109375,-0.265625 0.34375,-0.90625 0.34375,-1.1875 0,-0.109375 -0.046875,-0.21875 -0.1875,-0.21875 -0.078125,0 -0.1875,0.03125 -0.265625,0.171875 C 2.78125,-2.53125 2.65625,-1.890625 2.65625,-1.53125 2.328125,-1.0625 1.9375,-0.609375 1.3125,-0.609375 c -0.671875,0 -0.875,-0.59375 -0.875,-1.140625 0,-1.25 1.015625,-2.296875 1.015625,-2.421875 0,-0.109375 -0.078125,-0.1875 -0.1875,-0.1875 -0.125,0 -0.203125,0.125 -0.265625,0.21875 -0.5,0.734375 -0.875,1.921875 -0.875,2.828125 0,0.6875 0.21875,1.421875 1.046875,1.421875 0.703125,0 1.171875,-0.5 1.53125,-1.046875 0.09375,0.578125 0.484375,1.046875 1.09375,1.046875 0.78125,0 1.25,-0.609375 1.609375,-1.359375 0.25,-0.484375 0.625,-1.84375 0.625,-2.453125 z m 0,0"
             id="path4030" />
        </symbol>
        <symbol
           style="overflow:visible"
           overflow="visible"
           id="textext-3752d021-3">
          <path
             inkscape:connector-curvature="0"
             style="stroke:none"
             d="m 2.046875,-3.984375 0.9375,0 c 0.203125,0 0.3125,0 0.3125,-0.203125 0,-0.109375 -0.109375,-0.109375 -0.28125,-0.109375 l -0.875,0 C 2.5,-5.71875 2.546875,-5.90625 2.546875,-5.96875 c 0,-0.171875 -0.125,-0.265625 -0.296875,-0.265625 -0.03125,0 -0.3125,0 -0.390625,0.359375 l -0.390625,1.578125 -0.9375,0 c -0.203125,0 -0.296875,0 -0.296875,0.1875 0,0.125 0.078125,0.125 0.28125,0.125 l 0.875,0 C 0.671875,-1.15625 0.625,-0.984375 0.625,-0.8125 0.625,-0.265625 1,0.109375 1.546875,0.109375 2.5625,0.109375 3.125,-1.34375 3.125,-1.421875 3.125,-1.53125 3.046875,-1.53125 3.015625,-1.53125 2.921875,-1.53125 2.90625,-1.5 2.859375,-1.390625 2.4375,-0.34375 1.90625,-0.109375 1.5625,-0.109375 c -0.203125,0 -0.3125,-0.125 -0.3125,-0.453125 0,-0.25 0.03125,-0.3125 0.0625,-0.484375 z m 0,0"
             id="path4033" />
        </symbol>
        <symbol
           style="overflow:visible"
           overflow="visible"
           id="textext-3752d021-4">
          <path
             inkscape:connector-curvature="0"
             style="stroke:none"
             d="m 4.53125,-4.984375 c 0,-0.65625 -0.171875,-2.046875 -1.1875,-2.046875 -1.390625,0 -2.921875,2.8125 -2.921875,5.09375 0,0.9375 0.28125,2.046875 1.1875,2.046875 1.40625,0 2.921875,-2.859375 2.921875,-5.09375 z M 1.46875,-3.625 C 1.640625,-4.25 1.84375,-5.046875 2.25,-5.765625 2.515625,-6.25 2.875,-6.8125 3.328125,-6.8125 c 0.484375,0 0.546875,0.640625 0.546875,1.203125 0,0.5 -0.078125,1 -0.3125,1.984375 z m 2,0.328125 C 3.359375,-2.84375 3.15625,-2 2.765625,-1.28125 c -0.34375,0.6875 -0.71875,1.171875 -1.15625,1.171875 -0.328125,0 -0.53125,-0.296875 -0.53125,-1.21875 0,-0.421875 0.0625,-1 0.3125,-1.96875 z m 0,0"
             id="path4036" />
        </symbol>
        <symbol
           style="overflow:visible"
           overflow="visible"
           id="textext-3752d021-5">
          <path
             inkscape:connector-curvature="0"
             style="stroke:none"
             d="m 2.9375,-3.71875 1.671875,0 c 0.125,0 0.484375,0 0.484375,-0.34375 0,-0.234375 -0.203125,-0.234375 -0.40625,-0.234375 l -2.78125,0 c -0.203125,0 -0.59375,0 -1.03125,0.46875 -0.328125,0.359375 -0.609375,0.84375 -0.609375,0.890625 0,0.015625 0,0.109375 0.125,0.109375 0.078125,0 0.09375,-0.046875 0.15625,-0.125 C 1.03125,-3.71875 1.609375,-3.71875 1.8125,-3.71875 l 0.828125,0 -0.96875,3.203125 C 1.625,-0.40625 1.5625,-0.1875 1.5625,-0.15625 c 0,0.109375 0.078125,0.28125 0.296875,0.28125 0.328125,0 0.375,-0.28125 0.40625,-0.4375 z m 0,0"
             id="path4039" />
        </symbol>
        <symbol
           style="overflow:visible"
           overflow="visible"
           id="textext-3752d021-6">
          <path
             inkscape:connector-curvature="0"
             style="stroke:none"
             d="M 0.828125,-0.953125 C 0.90625,-0.5 1.125,0.078125 1.71875,0.078125 1.9375,0.078125 2.1875,0 2.453125,-0.171875 2.5625,-0.234375 2.921875,-0.5 2.921875,-0.578125 c 0,-0.046875 -0.046875,-0.125 -0.109375,-0.125 -0.03125,0 -0.046875,0 -0.15625,0.09375 -0.296875,0.265625 -0.609375,0.5 -0.921875,0.5 C 1.25,-0.109375 1.25,-0.921875 1.25,-1.0625 c 0,-0.09375 0,-0.09375 0.015625,-0.234375 0.015625,-0.0625 0.015625,-0.078125 0.09375,-0.15625 0.375,-0.359375 1.703125,-1.640625 1.703125,-2.84375 0,-0.109375 0,-0.609375 -0.46875,-0.609375 C 2.015625,-4.90625 1.546875,-4 1.4375,-3.796875 1.140625,-3.203125 0.96875,-2.640625 0.90625,-2.28125 0.796875,-1.8125 0.796875,-1.578125 0.796875,-1.234375 0.75,-1.1875 0.34375,-0.828125 0.28125,-0.78125 c -0.109375,0.109375 -0.125,0.109375 -0.125,0.15625 0,0.046875 0.0625,0.125 0.125,0.125 0.046875,0 0.234375,-0.171875 0.28125,-0.21875 z m 0.5,-0.796875 C 1.453125,-2.453125 2,-4.703125 2.59375,-4.703125 c 0.15625,0 0.25,0.109375 0.25,0.359375 0,0.078125 0,0.703125 -0.609375,1.5625 C 1.875,-2.28125 1.5,-1.90625 1.328125,-1.75 z m 0,0"
             id="path4042" />
        </symbol>
        <symbol
           style="overflow:visible"
           overflow="visible"
           id="textext-3752d021-7">
          <path
             inkscape:connector-curvature="0"
             style="stroke:none"
             d="m 2.875,-4.1875 c 0.0625,-0.25 0.078125,-0.328125 0.71875,-0.328125 0.21875,0 0.28125,0 0.28125,-0.140625 0,-0.015625 0,-0.109375 -0.109375,-0.109375 -0.15625,0 -0.34375,0.015625 -0.515625,0.03125 -0.171875,0 -0.390625,0 -0.5625,0 -0.140625,0 -0.328125,0 -0.484375,0 -0.140625,0 -0.3125,-0.03125 -0.453125,-0.03125 -0.03125,0 -0.140625,0 -0.140625,0.15625 0,0.09375 0.078125,0.09375 0.21875,0.09375 0.015625,0 0.140625,0 0.265625,0.015625 0.15625,0.015625 0.171875,0.03125 0.171875,0.109375 0,0 0,0.046875 -0.03125,0.140625 l -0.9375,3.703125 C 1.234375,-0.3125 1.21875,-0.25 0.6875,-0.25 c -0.109375,0 -0.203125,0 -0.203125,0.140625 C 0.484375,0 0.5625,0 0.6875,0 l 3.5,0 c 0.1875,0 0.1875,0 0.25,-0.140625 0.0625,-0.1875 0.59375,-1.53125 0.59375,-1.59375 0,-0.015625 -0.015625,-0.09375 -0.125,-0.09375 -0.078125,0 -0.09375,0.03125 -0.140625,0.140625 C 4.5,-1.03125 4.1875,-0.25 2.921875,-0.25 l -0.796875,0 c -0.203125,0 -0.21875,-0.015625 -0.21875,-0.078125 0,0 0,-0.03125 0.03125,-0.140625 z m 0,0"
             id="path4045" />
        </symbol>
        <symbol
           style="overflow:visible"
           overflow="visible"
           id="textext-3752d021-8">
          <path
             inkscape:connector-curvature="0"
             style="stroke:none"
             d="m 2.765625,-3.734375 0,-2.640625 1.8125,0 c 1.015625,0 1.1875,0.796875 1.1875,1.25 0,0.765625 -0.46875,1.390625 -1.4375,1.390625 z M 5.46875,-3.5625 C 6.546875,-3.765625 7.1875,-4.359375 7.1875,-5.125 c 0,-0.921875 -0.875,-1.71875 -2.46875,-1.71875 l -4.328125,0 0,0.46875 1.078125,0 0,5.90625 -1.078125,0 0,0.46875 4.625,0 C 6.671875,0 7.5,-0.875 7.5,-1.859375 7.5,-2.8125 6.65625,-3.484375 5.46875,-3.5625 z m -0.859375,3.09375 -1.84375,0 0,-2.90625 1.9375,0 c 0.203125,0 0.671875,0 1.015625,0.421875 0.328125,0.421875 0.328125,0.984375 0.328125,1.09375 0,0.109375 0,1.390625 -1.4375,1.390625 z m 0,0"
             id="path4048" />
        </symbol>
        <symbol
           style="overflow:visible"
           overflow="visible"
           id="textext-3752d021-9">
          <path
             inkscape:connector-curvature="0"
             style="stroke:none"
             d="m 6.40625,-2.734375 -0.46875,0 c -0.078125,0.6875 -0.25,2.265625 -2.03125,2.265625 l -1.03125,0 0,-5.90625 1.359375,0 0,-0.46875 C 3.78125,-6.8125 2.703125,-6.8125 2.21875,-6.8125 c -0.4375,0 -1.453125,0 -1.828125,-0.03125 l 0,0.46875 1.078125,0 0,5.90625 -1.078125,0 0,0.46875 5.703125,0 z m 0,0"
             id="path4051" />
        </symbol>
      </g>
    </defs>
  </defs>
  <metadata
     id="metadata7">
    <rdf:RDF>
      <cc:Work
         rdf:about="">
        <dc:format>image/svg+xml</dc:format>
        <dc:type
           rdf:resource="http://purl.org/dc/dcmitype/StillImage" />
        <dc:title />
      </cc:Work>
    </rdf:RDF>
  </metadata>
  <g
     inkscape:label="Camada 1"
     inkscape:groupmode="layer"
     id="layer1"
     transform="translate(11.875,100.8521)">
    <g
       id="g4906">
      <path
         transform="matrix(1,0,0,1.5,335,-216.18109)"
         d="m 80,392.36218 c 0,11.0457 -35.81722,20 -80,20 -44.18278,0 -80,-8.9543 -80,-20 0,-11.04569 35.81722,-20 80,-20 44.18278,0 80,8.95431 80,20 z"
         sodipodi:ry="20"
         sodipodi:rx="80"
         sodipodi:cy="392.36218"
         sodipodi:cx="0"
         id="path3763"
         style="fill:#fbffa3;fill-opacity:1;stroke:#d90700;stroke-width:3.06186223;stroke-miterlimit:4;stroke-opacity:1;stroke-dasharray:none;stroke-dashoffset:0"
         sodipodi:type="arc" />
      <path
         transform="translate(65,-180)"
         d="m 420,292.36218 c 0,22.09139 -67.15729,40 -150,40 -82.84271,0 -150,-17.90861 -150,-40 0,-22.09139 67.15729,-40 150,-40 82.84271,0 150,17.90861 150,40 z"
         sodipodi:ry="40"
         sodipodi:rx="150"
         sodipodi:cy="292.36218"
         sodipodi:cx="270"
         id="path2987"
         style="fill:#f3e9b0;fill-opacity:1;stroke:#2532ed;stroke-width:3.75;stroke-miterlimit:4;stroke-opacity:1;stroke-dasharray:none;stroke-dashoffset:0"
         sodipodi:type="arc" />
      <path
         transform="matrix(0.86764706,0,0,1.6666667,5.2941176,-714.90818)"
         d="m 720,952.36218 c 0,33.13709 -152.22319,60.00002 -340,60.00002 -187.77681,0 -340,-26.86293 -340,-60.00002 0,-33.13708 152.22319,-60 340,-60 187.77681,0 340,26.86292 340,60 z"
         sodipodi:ry="60"
         sodipodi:rx="340"
         sodipodi:cy="952.36218"
         sodipodi:cx="380"
         id="path2989"
         style="fill:#fbff35;fill-opacity:1;stroke:#0a2800;stroke-width:3.11842513;stroke-miterlimit:4;stroke-opacity:1;stroke-dasharray:none;stroke-dashoffset:0"
         sodipodi:type="arc" />
      <path
         inkscape:connector-curvature="0"
         id="path3759"
         d="M 183.57143,112.36218 630,872.36218"
         style="fill:none;stroke:#000000;stroke-width:2.5;stroke-linecap:butt;stroke-linejoin:miter;stroke-miterlimit:4;stroke-opacity:1;stroke-dasharray:5, 2.5;stroke-dashoffset:0" />
      <path
         inkscape:connector-curvature="0"
         id="path3761"
         d="M 485,113.07647 40,872.36218"
         style="fill:none;stroke:#000000;stroke-width:2.5;stroke-linecap:butt;stroke-linejoin:miter;stroke-miterlimit:4;stroke-opacity:1;stroke-dasharray:5, 2.5;stroke-dashoffset:0" />
      <path
         sodipodi:nodetypes="cc"
         inkscape:connector-curvature="0"
         id="path3790"
         d="m 334.85643,366.64789 0,-414.999993"
         style="fill:none;stroke:#000000;stroke-width:2;stroke-linecap:butt;stroke-linejoin:miter;stroke-miterlimit:4;stroke-opacity:1;stroke-dasharray:none;marker-end:url(#Arrow1Mend)" />
      <path
         sodipodi:nodetypes="cc"
         inkscape:connector-curvature="0"
         id="path3790-1"
         d="m 335,871.36218 0,-501.85714"
         style="fill:none;stroke:#000000;stroke-width:2;stroke-linecap:butt;stroke-linejoin:miter;stroke-miterlimit:4;stroke-opacity:1;stroke-dasharray:6, 2;stroke-dashoffset:0;marker-end:none" />
      <path
         inkscape:connector-curvature="0"
         id="path4628"
         d="M 250,82.362183 510,952.36218"
         style="fill:none;stroke:#000000;stroke-width:2.5;stroke-linecap:butt;stroke-linejoin:miter;stroke-miterlimit:4;stroke-opacity:1;stroke-dasharray:none;marker-start:url(#Arrow1Mstart);marker-end:url(#Arrow1Mend-4)" />
      <path
         inkscape:connector-curvature="0"
         id="path5002"
         d="m 335,368.79075 -70,10"
         style="fill:none;stroke:#000000;stroke-width:2.5;stroke-linecap:butt;stroke-linejoin:miter;stroke-miterlimit:4;stroke-opacity:1;stroke-dasharray:none;marker-end:url(#Arrow1Mend-4)" />
      <path
         inkscape:connector-curvature="0"
         id="path5190"
         d="m 335,872.36218 c 175,80 175,80 175,80"
         style="fill:none;stroke:#000000;stroke-width:1.0145992px;stroke-linecap:butt;stroke-linejoin:miter;stroke-opacity:1" />
      <path
         inkscape:connector-curvature="0"
         id="path5192"
         d="m 335,872.36218 95,95"
         style="fill:none;stroke:#000000;stroke-width:1.08972478px;stroke-linecap:butt;stroke-linejoin:miter;stroke-opacity:1" />
      <path
         inkscape:connector-curvature="0"
         id="path5194"
         d="m 510,952.36218 -75,15"
         style="fill:none;stroke:#000000;stroke-width:2.5;stroke-linecap:butt;stroke-linejoin:miter;stroke-miterlimit:4;stroke-opacity:1;stroke-dasharray:none;marker-end:url(#Arrow1Mend-4)" />
      <path
         transform="matrix(2.3939461,0,0,1.5697383,-249.1888,-232.42612)"
         sodipodi:open="true"
         sodipodi:end="1.6416777"
         sodipodi:start="0.68134094"
         d="m 258.73355,458.37741 c -3.63497,4.43401 -9.22896,6.83421 -14.98577,6.42992"
         sodipodi:ry="17.489061"
         sodipodi:rx="17.681265"
         sodipodi:cy="447.36218"
         sodipodi:cx="245"
         id="path3800"
         style="fill:none;stroke:#000000;stroke-width:1.03171372;stroke-miterlimit:4;stroke-opacity:1;stroke-dasharray:none;stroke-dashoffset:0"
         sodipodi:type="arc" />
      <path
         sodipodi:open="true"
         transform="matrix(1.6486483,0,0,0.42756999,-229.56065,176.63252)"
         sodipodi:end="4.7074686"
         sodipodi:start="3.3638063"
         d="m 330.30735,294.05634 c 1.28248,-6.81126 6.31208,-11.65962 12.13115,-11.69398"
         sodipodi:ry="15"
         sodipodi:rx="12.5"
         sodipodi:cy="297.36218"
         sodipodi:cx="342.5"
         id="path3809"
         style="fill:none;stroke:#000000;stroke-width:2.38211322;stroke-miterlimit:4;stroke-opacity:1;stroke-dasharray:none;stroke-dashoffset:0"
         sodipodi:type="arc" />
      <path
         sodipodi:open="true"
         sodipodi:end="0.71627492"
         sodipodi:start="0.069577596"
         transform="matrix(1,0,0,0.85714286,-25,102.48031)"
         d="m 384.94556,911.07881 c -0.34016,3.79641 -2.26218,7.4031 -5.47478,10.27352"
         sodipodi:ry="17.5"
         sodipodi:rx="22.5"
         sodipodi:cy="909.86218"
         sodipodi:cx="362.5"
         id="path3811"
         style="fill:none;stroke:#000000;stroke-width:1.35015428;stroke-miterlimit:4;stroke-opacity:1;stroke-dasharray:none;stroke-dashoffset:0"
         sodipodi:type="arc" />
      <g
         transform="translate(376.27119,233.13559)"
         id="g4251">
        <g
           id="g4054"
           style="fill:#000000;fill-opacity:1"
           transform="matrix(5.4237293,0,0,5.4237293,-360.67797,-239.33273)">
          <use
             id="use4056"
             y="9.9630003"
             x="35.348"
             xlink:href="#textext-3752d021-0"
             width="744.09448"
             height="1052.3622" />
        </g>
        <g
           id="g4058"
           style="fill:#000000;fill-opacity:1"
           transform="matrix(5.4237293,0,0,5.4237293,-360.67797,-239.33273)">
          <use
             id="use4060"
             y="11.457"
             x="41.351002"
             xlink:href="#textext-3752d021-6"
             width="744.09448"
             height="1052.3622" />
        </g>
      </g>
      <g
         transform="matrix(5.4237293,0,0,5.4237293,12.796608,-67.637817)"
         style="fill:#000000;fill-opacity:1"
         id="g4062">
        <use
           height="1052.3622"
           width="744.09448"
           xlink:href="#textext-3752d021-8"
           x="65.109001"
           y="9.9630003"
           id="use4064" />
      </g>
      <g
         transform="matrix(5.4237293,0,0,5.4237293,-34.745766,707.19269)"
         style="fill:#000000;fill-opacity:1"
         id="g4066">
        <use
           height="1052.3622"
           width="744.09448"
           xlink:href="#textext-3752d021-9"
           x="93.184601"
           y="9.9630003"
           id="use4068" />
      </g>
      <g
         transform="translate(169.18886,1186.5315)"
         id="g4257">
        <g
           id="g4070"
           style="fill:#000000;fill-opacity:1"
           transform="matrix(5.4237293,0,0,5.4237293,-360.67797,-239.33273)">
          <use
             id="use4072"
             y="9.9630003"
             x="120.001"
             xlink:href="#textext-3752d021-1"
             width="744.09448"
             height="1052.3622" />
        </g>
        <g
           id="g4074"
           style="fill:#000000;fill-opacity:1"
           transform="matrix(5.4237293,0,0,5.4237293,-360.67797,-239.33273)">
          <use
             id="use4076"
             y="9.9630003"
             x="125.186"
             xlink:href="#textext-3752d021-9"
             width="744.09448"
             height="1052.3622" />
        </g>
      </g>
      <g
         transform="translate(-145.18766,1221.4831)"
         id="g4263">
        <g
           id="g4078"
           style="fill:#000000;fill-opacity:1"
           transform="matrix(5.4237293,0,0,5.4237293,-360.67797,-239.33273)">
          <use
             id="use4080"
             y="9.9630003"
             x="152.002"
             xlink:href="#textext-3752d021-2"
             width="744.09448"
             height="1052.3622" />
        </g>
        <g
           id="g4082"
           style="fill:#000000;fill-opacity:1"
           transform="matrix(5.4237293,0,0,5.4237293,-360.67797,-239.33273)">
          <use
             id="use4084"
             y="11.457"
             x="158.203"
             xlink:href="#textext-3752d021-7"
             width="744.09448"
             height="1052.3622" />
        </g>
        <g
           id="g4086"
           style="fill:#000000;fill-opacity:1"
           transform="matrix(5.4237293,0,0,5.4237293,-360.67797,-239.33273)">
          <use
             id="use4088"
             y="9.9630003"
             x="164.16701"
             xlink:href="#textext-3752d021-1"
             width="744.09448"
             height="1052.3622" />
          <use
             id="use4090"
             y="9.9630003"
             x="169.35254"
             xlink:href="#textext-3752d021-3"
             width="744.09448"
             height="1052.3622" />
        </g>
      </g>
      <g
         transform="matrix(5.4237293,0,0,5.4237293,-704.56416,486.92635)"
         style="fill:#000000;fill-opacity:1"
         id="g4092">
        <use
           height="1052.3622"
           width="744.09448"
           xlink:href="#textext-3752d021-4"
           x="192.87523"
           y="9.9630003"
           id="use4094" />
      </g>
      <g
         transform="matrix(5.4237293,0,0,5.4237293,-876.39226,206.38155)"
         style="fill:#000000;fill-opacity:1"
         id="g4096">
        <use
           height="1052.3622"
           width="744.09448"
           xlink:href="#textext-3752d021-4"
           x="217.75583"
           y="9.9630003"
           id="use4098" />
      </g>
      <g
         transform="matrix(5.4237293,0,0,5.4237293,-1092.8208,340.66727)"
         style="fill:#000000;fill-opacity:1"
         id="g4100">
        <use
           height="1052.3622"
           width="744.09448"
           xlink:href="#textext-3752d021-5"
           x="242.63643"
           y="9.9630003"
           id="use4102" />
      </g>
      <path
         inkscape:connector-curvature="0"
         id="path4272"
         d="m 357.85714,888.79075 c 30,110.00002 30,110.00002 30,110.00002"
         style="fill:none;stroke:#000000;stroke-width:0.68660653px;stroke-linecap:butt;stroke-linejoin:miter;stroke-opacity:1;marker-end:url(#Arrow1Mend-4)" />
    </g>
  </g>
</svg>
