<?xml version="1.0" encoding="UTF-8" standalone="no"?>
<!-- Created with Inkscape (http://www.inkscape.org/) -->
<svg
   xmlns:svg="http://www.w3.org/2000/svg"
   xmlns="http://www.w3.org/2000/svg"
   xmlns:xlink="http://www.w3.org/1999/xlink"
   version="1.0"
   width="500"
   height="360"
   id="svg2">
  <defs
     id="defs4">
    <linearGradient
       id="linearGradient5106">
      <stop
         style="stop-color:#ff0000;stop-opacity:1"
         offset="0"
         id="stop5108" />
      <stop
         style="stop-color:#0000ff;stop-opacity:1"
         offset="1"
         id="stop5110" />
    </linearGradient>
    <linearGradient
       x1="175.625"
       y1="616.90625"
       x2="175.625"
       y2="470.25"
       id="linearGradient5253"
       xlink:href="#linearGradient5106"
       gradientUnits="userSpaceOnUse"
       gradientTransform="matrix(0.924977,0,0,0.924977,402.5935,42.18992)" />
    <linearGradient
       x1="175.625"
       y1="616.90625"
       x2="175.625"
       y2="470.25"
       id="linearGradient5256"
       xlink:href="#linearGradient5106"
       gradientUnits="userSpaceOnUse"
       gradientTransform="matrix(-0.924977,0,0,0.924977,620.5132,42.18992)" />
    <linearGradient
       x1="175.625"
       y1="616.90625"
       x2="175.625"
       y2="470.25"
       id="linearGradient5259"
       xlink:href="#linearGradient5106"
       gradientUnits="userSpaceOnUse"
       gradientTransform="matrix(0.924977,0,0,0.924977,188.6366,42.18992)" />
    <linearGradient
       x1="175.625"
       y1="616.90625"
       x2="175.625"
       y2="470.25"
       id="linearGradient5262"
       xlink:href="#linearGradient5106"
       gradientUnits="userSpaceOnUse"
       gradientTransform="matrix(-0.924977,0,0,0.924977,406.5563,42.18992)" />
    <linearGradient
       x1="113.4286"
       y1="573.13123"
       x2="237.42455"
       y2="512.98218"
       id="linearGradient1352"
       xlink:href="#linearGradient5106"
       gradientUnits="userSpaceOnUse"
       gradientTransform="matrix(-0.924977,0,0,0.924977,242.1433,-318.1471)" />
  </defs>
  <g
     style="display:none"
     id="layer3">
    <rect
       width="562.01196"
       height="155.45413"
       x="70.07972"
       y="467.25467"
       transform="translate(-68.61472,-361.3649)"
       style="fill:#a8ffff;fill-opacity:1;fill-rule:evenodd;stroke:#000000;stroke-width:0.88821077px;stroke-linecap:butt;stroke-linejoin:miter;stroke-opacity:1;display:inline"
       id="rect2162" />
    <path
       d="M 257.028,477.16024 L 257.05691,482.71011 C 276.94097,482.72574 292.95759,498.75187 292.95759,518.63967 L 292.95759,571.42116 C 292.95759,591.31869 276.92554,607.32182 257.028,607.32182 L 257.028,594.6323 C 259.81576,594.22277 262.54987,593.58056 265.15046,592.69563 C 274.8687,589.74473 279.84575,579.7626 279.9501,570.09151 C 280.24898,553.75398 279.61473,537.39087 280.03681,521.03883 C 281.78302,507.7959 270.01389,495.62057 257.08582,495.39963 C 257.07622,495.39998 257.06657,495.39981 257.05691,495.39963 L 257.028,500.94949 L 236.67852,489.06932 L 257.028,477.16024 z M 231.18647,482.65229 L 231.18647,495.34182 C 228.39871,495.75135 225.66459,496.39356 223.06401,497.27849 C 213.34578,500.2294 208.36873,510.21152 208.26438,519.88261 C 207.9655,536.22014 208.59975,552.58325 208.17767,568.93528 C 206.43146,582.17822 218.20058,594.35354 231.12865,594.57448 C 231.13825,594.57414 231.1479,594.57431 231.15756,594.57448 L 231.18647,589.02462 L 251.53595,600.90479 L 231.18647,612.81387 L 231.15756,607.26401 C 211.27351,607.24839 195.2569,591.22225 195.2569,571.33444 L 195.2569,518.55296 C 195.2569,498.65544 211.28894,482.65229 231.18647,482.65229 z "
       transform="translate(-68.61472,-361.3649)"
       style="fill:url(#linearGradient5262);fill-opacity:1;stroke-width:3;stroke-miterlimit:4;stroke-dasharray:none;display:inline"
       id="path5114" />
    <path
       d="M 338.16493,477.16024 L 338.13602,482.71011 C 318.25196,482.72574 302.23534,498.75187 302.23534,518.63967 L 302.23534,571.42116 C 302.23534,591.31869 318.26739,607.32182 338.16493,607.32182 L 338.16493,594.6323 C 335.37717,594.22277 332.64306,593.58056 330.04247,592.69563 C 320.32423,589.74473 315.34718,579.7626 315.24283,570.09151 C 314.94395,553.75398 315.5782,537.39087 315.15612,521.03883 C 313.40991,507.7959 325.17904,495.62057 338.10711,495.39963 C 338.11671,495.39998 338.12636,495.39981 338.13602,495.39963 L 338.16493,500.94949 L 358.51441,489.06932 L 338.16493,477.16024 z M 364.00646,482.65229 L 364.00646,495.34182 C 366.79422,495.75135 369.52834,496.39356 372.12892,497.27849 C 381.84715,500.2294 386.8242,510.21152 386.92855,519.88261 C 387.22743,536.22014 386.59318,552.58325 387.01526,568.93528 C 388.76147,582.17822 376.99235,594.35354 364.06428,594.57448 C 364.05468,594.57414 364.04503,594.57431 364.03537,594.57448 L 364.00646,589.02462 L 343.65698,600.90479 L 364.00646,612.81387 L 364.03537,607.26401 C 383.91942,607.24839 399.93603,591.22225 399.93603,571.33444 L 399.93603,518.55296 C 399.93603,498.65544 383.90399,482.65229 364.00646,482.65229 z "
       transform="translate(-68.61472,-361.3649)"
       style="fill:url(#linearGradient5259);fill-opacity:1;stroke-width:3;stroke-miterlimit:4;stroke-dasharray:none;display:inline"
       id="path5118" />
    <path
       d="M 470.98489,477.16024 L 471.0138,482.71011 C 490.89786,482.72574 506.91448,498.75187 506.91448,518.63967 L 506.91448,571.42116 C 506.91448,591.31869 490.88243,607.32182 470.98489,607.32182 L 470.98489,594.6323 C 473.77265,594.22277 476.50676,593.58056 479.10735,592.69563 C 488.82559,589.74473 493.80264,579.7626 493.90699,570.09151 C 494.20587,553.75398 493.57162,537.39087 493.9937,521.03883 C 495.73991,507.7959 483.97078,495.62057 471.04271,495.39963 C 471.03311,495.39998 471.02346,495.39981 471.0138,495.39963 L 470.98489,500.94949 L 450.63541,489.06932 L 470.98489,477.16024 z M 445.14336,482.65229 L 445.14336,495.34182 C 442.3556,495.75135 439.62148,496.39356 437.0209,497.27849 C 427.30267,500.2294 422.32562,510.21152 422.22127,519.88261 C 421.92239,536.22014 422.55664,552.58325 422.13456,568.93528 C 420.38835,582.17822 432.15747,594.35354 445.08554,594.57448 C 445.09514,594.57414 445.10479,594.57431 445.11445,594.57448 L 445.14336,589.02462 L 465.49284,600.90479 L 445.14336,612.81387 L 445.11445,607.26401 C 425.2304,607.24839 409.21379,591.22225 409.21379,571.33444 L 409.21379,518.55296 C 409.21379,498.65544 425.24583,482.65229 445.14336,482.65229 z "
       transform="translate(-68.61472,-361.3649)"
       style="fill:url(#linearGradient5256);fill-opacity:1;stroke-width:3;stroke-miterlimit:4;stroke-dasharray:none;display:inline"
       id="path5122" />
    <path
       d="M 552.12184,477.16024 L 552.09293,482.71011 C 532.20887,482.72574 516.19225,498.75187 516.19225,518.63967 L 516.19225,571.42116 C 516.19225,591.31869 532.2243,607.32182 552.12184,607.32182 L 552.12184,594.6323 C 549.33408,594.22277 546.59997,593.58056 543.99938,592.69563 C 534.28114,589.74473 529.30409,579.7626 529.19974,570.09151 C 528.90086,553.75398 529.53511,537.39087 529.11303,521.03883 C 527.36682,507.7959 539.13595,495.62057 552.06402,495.39963 C 552.07362,495.39998 552.08327,495.39981 552.09293,495.39963 L 552.12184,500.94949 L 572.47132,489.06932 L 552.12184,477.16024 z M 577.96337,482.65229 L 577.96337,495.34182 C 580.75113,495.75135 583.48525,496.39356 586.08583,497.27849 C 595.80406,500.2294 600.78111,510.21152 600.88546,519.88261 C 601.18434,536.22014 600.55009,552.58325 600.97217,568.93528 C 602.71838,582.17822 590.94926,594.35354 578.02119,594.57448 C 578.01159,594.57414 578.00194,594.57431 577.99228,594.57448 L 577.96337,589.02462 L 557.61389,600.90479 L 577.96337,612.81387 L 577.99228,607.26401 C 597.87633,607.24839 613.89294,591.22225 613.89294,571.33444 L 613.89294,518.55296 C 613.89294,498.65544 597.8609,482.65229 577.96337,482.65229 z "
       transform="translate(-68.61472,-361.3649)"
       style="fill:url(#linearGradient5253);fill-opacity:1;stroke-width:3;stroke-miterlimit:4;stroke-dasharray:none;display:inline"
       id="path5126" />
  </g>
  <g
     style="display:none"
     id="layer2">
    <path
       d="M 168.68513,207.28528 L 168.71404,212.83515 C 188.5981,212.85078 204.61472,228.87691 204.61472,248.76471 L 204.61472,301.5462 C 204.61472,321.44373 188.58267,337.44686 168.68513,337.44686 L 168.68513,324.75734 C 171.47289,324.34781 174.207,323.7056 176.80759,322.82067 C 186.52583,319.86977 191.50288,309.88764 191.60723,300.21655 C 191.90611,283.87902 191.27186,267.51591 191.69394,251.16387 C 193.44015,237.92094 181.67102,225.74561 168.74295,225.52467 C 168.73335,225.52502 168.7237,225.52485 168.71404,225.52467 L 168.68513,231.07453 L 148.33565,219.19436 L 168.68513,207.28528 z M 142.8436,212.77733 L 142.8436,225.46686 C 140.05584,225.87639 137.32172,226.5186 134.72114,227.40353 C 125.00291,230.35444 120.02586,240.33656 119.92151,250.00765 C 119.62263,266.34518 120.25688,282.70829 119.8348,299.06032 C 118.08859,312.30326 129.85771,324.47858 142.78578,324.69952 C 142.79538,324.69918 142.80503,324.69935 142.81469,324.69952 L 142.8436,319.14966 L 163.19308,331.02983 L 142.8436,342.93891 L 142.81469,337.38905 C 122.93064,337.37343 106.91403,321.34729 106.91403,301.45948 L 106.91403,248.678 C 106.91403,228.78048 122.94607,212.77733 142.8436,212.77733 z "
       transform="translate(-68.61472,-361.3649)"
       style="fill:none;fill-opacity:1;stroke:#000000;stroke-width:0.1;stroke-miterlimit:4;stroke-dasharray:none;stroke-opacity:1"
       id="path1375" />
    <path
       d="M 346.61472,284.28525 C 346.61472,284.28525 340.61472,284.28525 340.61472,284.28525 C 340.61472,284.28525 353.61472,265.28525 353.61472,265.28525 C 353.61472,265.28525 366.61472,284.28525 366.61472,284.28525 C 366.61472,284.28525 360.61472,284.28525 360.61472,284.28525 C 360.61472,284.28525 360.61472,305.19994 360.61472,309.28525 C 360.61472,322.28525 369.61472,333.28525 383.61472,333.28525 C 386.50366,333.28525 402.45173,333.28525 408.61472,333.28525 C 422.61472,333.28525 431.61472,325.28525 431.61472,309.28525 C 431.61472,309.28525 445.61472,309.28525 445.61472,309.28525 C 445.61472,331.28525 430.61472,347.28525 408.61472,347.28525 C 390.43506,347.28525 383.61472,347.28525 383.61472,347.28525 C 361.61472,347.28525 346.61472,331.28525 346.61472,309.28525 L 346.61472,284.28525 M 445.61472,285.28525 C 445.61472,285.28525 451.61472,285.28525 451.61472,285.28525 C 451.61472,285.28525 438.61472,304.28525 438.61472,304.28525 C 438.61472,304.28525 425.61472,285.28525 425.61472,285.28525 C 425.61472,285.28525 431.61472,285.28525 431.61472,285.28525 C 431.61472,285.28525 431.5355,267.40663 431.61472,260.28525 C 431.5355,247.40663 422.61472,236.28525 408.61472,236.28525 C 408.61472,236.28525 390.32292,236.28525 383.61472,236.28525 C 369.61472,236.28525 360.61472,247.28525 360.61472,260.28525 C 360.61472,260.28525 346.61472,260.28525 346.61472,260.28525 C 346.61472,238.28525 362.61472,222.28525 383.61472,222.28525 C 392.21705,222.28525 408.61472,222.28525 408.61472,222.28525 C 429.61472,222.28525 445.61472,238.28525 445.61472,260.28525 L 445.61472,285.28525"
       transform="translate(-68.61472,-361.3649)"
       style="fill:none;fill-opacity:1;stroke:#000000;stroke-width:0.5;stroke-miterlimit:4;stroke-dasharray:none;stroke-opacity:1"
       id="path3151" />
  </g>
  <path
     d="M 490,255.69047 C 490,259.59524 484.99999,263.5 479.99999,263.5 C 461.97223,263.5 25,263.5 20,263.5 C 15,263.5 10,259.59524 10,255.69047 C 10,253.73809 10,99.5 10,99.5 C 10,99.5 11.875,99.5 15.39063,99.5 C 18.90625,99.5 33.4375,101 40,101 C 46.5625,101 65.85937,99.5 75,99.5 C 84.14062,99.5 98.75,101 110,101 C 121.25,101 132.10937,99.5 145,99.5 C 157.89062,99.5 165.9375,101 180,101 C 194.0625,101 200.23437,99.5 215,99.5 C 229.76562,99.5 235,101 250,101 C 265,101 265.23438,99.5 280,99.5 C 294.76563,99.5 300.9375,101 315,101 C 329.0625,101 337.10938,99.5 350,99.5 C 362.89063,99.5 373.75,101 385,101 C 396.25,101 415.85938,99.5 425,99.5 C 434.14063,99.5 453.4375,101 460,101 C 466.5625,101 481.09375,99.5 484.60937,99.5 C 488.125,99.5 490,99.5 490,99.5"
     style="opacity:0.6;fill:#a8ffff;fill-opacity:1;fill-rule:evenodd;stroke:#000000;stroke-width:1;stroke-linecap:round;stroke-linejoin:round;stroke-miterlimit:4;stroke-dasharray:none;stroke-opacity:1;display:inline"
     id="path3217" />
  <path
     d="M 490.00023,55.28857 C 490.00023,55.28857 490,244 490,255 C 490,260 485,265 480,265 C 461.97224,265 25,265 20,265 C 15,265 10,260 10,255 C 10,250 10,55 10,55"
     style="opacity:1;fill:none;fill-rule:evenodd;stroke:#4c4c4c;stroke-width:5.00000191;stroke-linecap:round;stroke-linejoin:round;stroke-miterlimit:4;stroke-dasharray:none;stroke-opacity:1"
     id="rect2160" />
  <path
     d="M 37.4375,305.31043 L 52.4375,281.125 L 67.4375,305.125 L 59.4375,305.125 L 59.4375,335.125 L 45.35838,335.125 L 45.35838,305.31043 L 37.4375,305.31043 z "
     style="opacity:1;fill:#ff7487;fill-opacity:1;stroke:#000000;stroke-width:1;stroke-linecap:round;stroke-linejoin:round;stroke-miterlimit:4;stroke-dasharray:none;stroke-opacity:1"
     id="path5201" />
  <path
     d="M 92.843908,115.82322 L 92.843908,121.82322 C 113.84391,121.82322 129.84392,137.82322 129.84392,159.82322 L 129.84392,208.82322 C 129.84392,229.82322 114.84391,246.82322 92.843908,246.82322 L 92.843908,232.82322 C 106.84391,232.82322 115.84391,222.82322 115.84391,208.82322 C 116.14279,192.48569 115.84391,172.91723 115.84391,159.82322 C 115.84391,146.82322 106.84391,135.82322 92.843908,135.82322 C 92.843908,135.82322 92.843908,141.82322 92.843908,141.82322 L 72.843908,128.82322 L 92.843908,115.82322 z M 67.843908,121.82322 L 67.843908,135.82322 C 53.843908,135.82322 44.843908,146.82322 44.843908,159.82322 C 44.545028,176.16075 45.265988,192.47119 44.843908,208.82322 C 44.843908,222.82322 54.843908,231.82322 67.843908,232.82322 C 67.843908,232.82322 67.843908,226.82322 67.843908,226.82322 L 87.843908,239.82322 L 67.843908,252.82322 L 67.843908,246.82322 C 46.843908,246.82322 30.843908,230.82322 30.843908,208.82322 L 30.843908,159.82322 C 30.843908,137.82322 46.843908,121.82322 67.843908,121.82322 z "
     style="fill:url(#linearGradient1352);fill-opacity:1;stroke:#000000;stroke-width:1;stroke-linecap:round;stroke-linejoin:round;stroke-miterlimit:4;stroke-dasharray:none;stroke-opacity:1"
     id="path3147" />
  <use
     transform="translate(226.2331,0.18829)"
     id="use3173"
     x="0"
     y="0"
     width="564.94196"
     height="365.92035"
     xlink:href="#path3147" />
  <use
     transform="matrix(-1,0,0,1,273.8953,0.240838)"
     id="use3175"
     x="0"
     y="0"
     width="564.94196"
     height="365.92035"
     xlink:href="#path3147" />
  <use
     transform="matrix(-1,0,0,1,499.8583,0.173166)"
     id="use3177"
     x="0"
     y="0"
     width="564.94196"
     height="365.92035"
     xlink:href="#path3147" />
  <use
     transform="translate(98.51387,7.452402e-2)"
     id="use3189"
     x="0"
     y="0"
     width="495"
     height="370"
     xlink:href="#path5201" />
  <use
     transform="translate(197.5626,-3.203998e-2)"
     id="use3191"
     x="0"
     y="0"
     width="495"
     height="370"
     xlink:href="#path5201" />
  <use
     transform="translate(296.5625,9.375002e-2)"
     id="use3193"
     x="0"
     y="0"
     width="495"
     height="370"
     xlink:href="#path5201" />
  <use
     transform="translate(395.5545,0.103224)"
     id="use3195"
     x="0"
     y="0"
     width="495"
     height="370"
     xlink:href="#path5201" />
  <path
     d="M 80.3202,43.54761 L 93.76539,68.63072 L 65.48078,69.6211 L 69.48077,62.69289 L 43.5,47.69288 L 50.53957,35.5 L 76.35975,50.40729 L 80.3202,43.54761 z "
     style="opacity:1;fill:#7fa1ff;fill-opacity:1;stroke:#000000;stroke-width:1.00000048;stroke-linecap:round;stroke-linejoin:round;stroke-miterlimit:4;stroke-dasharray:none;stroke-opacity:1;display:inline"
     id="path3197" />
  <use
     transform="translate(197.0625,-265.625)"
     id="use3199"
     x="0"
     y="0"
     width="500"
     height="370"
     xlink:href="#path5201" />
  <use
     transform="translate(291.0625,-265.625)"
     id="use3201"
     x="0"
     y="0"
     width="500"
     height="370"
     xlink:href="#path5201" />
  <use
     transform="translate(-187,0)"
     id="use3203"
     x="0"
     y="0"
     width="500"
     height="370"
     xlink:href="#use3201" />
  <use
     transform="matrix(-1,0,0,1,501,-2.384186e-7)"
     id="use3205"
     x="0"
     y="0"
     width="500"
     height="370"
     xlink:href="#path3197" />
</svg>
