<!DOCTYPE svg PUBLIC "-//W3C//DTD SVG 20010904//EN" "http://www.w3.org/TR/2001/REC-SVG-20010904/DTD/svg10.dtd">
<svg version="1.0" xmlns="http://www.w3.org/2000/svg" width="300px" height="290px" viewBox="0 0 3000 2900" preserveAspectRatio="xMidYMid meet">
<g id="layer101" fill="#04559d" stroke="none">
 <path d="M0 1450 l0 -1450 1500 0 1500 0 0 1450 0 1450 -1500 0 -1500 0 0 -1450z"/>
 </g>
<g id="layer102" fill="#f3f3f3" stroke="none">
 <path d="M0 1450 l0 -1450 1500 0 1500 0 0 1450 0 1450 -1500 0 -1500 0 0 -1450z m1230 1217 c0 -17 9 -28 32 -38 44 -19 45 -35 3 -43 -24 -5 -35 -12 -35 -24 0 -15 -2 -15 -10 -2 -13 20 -13 130 0 130 6 0 10 -10 10 -23z m338 7 c20 -14 22 -14 22 2 0 11 3 14 9 9 5 -6 5 -30 1 -55 -5 -29 -8 -35 -9 -18 -1 28 -45 72 -65 65 -6 -2 -10 -23 -9 -48 2 -33 0 -39 -7 -24 -5 11 -9 35 -9 53 -1 27 3 32 22 32 12 0 33 -7 45 -16z m111 -35 c26 -15 30 -15 51 1 17 13 19 19 9 22 -8 3 -11 9 -7 13 4 4 20 0 35 -10 l28 -18 -38 -16 c-30 -13 -35 -19 -25 -29 6 -6 18 -12 25 -12 7 0 13 -5 13 -11 0 -7 -8 -9 -22 -4 -13 4 -44 6 -70 6 l-48 -2 0 49 c0 49 12 80 18 45 1 -10 15 -25 31 -34z m-344 31 c-3 -6 6 -15 20 -20 34 -13 33 -13 38 13 2 12 5 -2 6 -31 1 -34 -3 -51 -9 -47 -6 4 -8 10 -6 14 8 12 -8 29 -29 33 -16 2 -20 -3 -20 -24 0 -14 -3 -30 -7 -34 -5 -4 -8 9 -8 29 0 20 -4 39 -10 42 -6 4 -5 11 3 20 14 16 31 20 22 5z m135 -37 c0 -25 -3 -43 -7 -39 -10 10 -10 86 0 86 4 0 7 -21 7 -47z m475 -23 c-4 -13 -1 -22 9 -26 23 -9 20 -21 -5 -20 -32 1 -34 -19 -3 -33 15 -6 24 -15 20 -18 -7 -8 -86 27 -86 39 0 4 6 8 13 8 7 0 19 16 26 35 13 36 37 50 26 15z m-878 -22 c30 -24 3 -68 -41 -68 -17 0 -40 31 -51 69 -7 23 -6 24 36 17 24 -4 49 -12 56 -18z m-123 -6 c-17 -11 -36 -52 -25 -52 5 0 22 -5 38 -11 27 -10 27 -11 9 -25 -11 -8 -29 -11 -39 -8 -16 5 -19 3 -14 -10 12 -31 -10 -16 -37 25 -26 39 -29 66 -4 41 9 -9 16 -4 30 18 10 17 26 30 35 30 11 0 14 -3 7 -8z m1128 -9 c14 -16 21 -53 11 -53 -2 0 -17 7 -34 15 -46 24 -58 6 -19 -27 40 -33 32 -37 -17 -7 -27 17 -32 26 -27 43 13 44 59 60 86 29z m86 -55 c-5 -18 -12 -41 -15 -50 -8 -26 -22 -22 -15 4 5 19 2 21 -26 15 -19 -4 -32 -2 -32 4 0 5 14 12 30 16 17 3 35 14 41 24 16 31 28 22 17 -13z m-1321 -65 c2 -24 0 -43 -4 -43 -15 0 -93 52 -93 61 0 6 7 8 16 5 23 -9 54 12 54 37 1 22 1 22 12 2 7 -11 14 -39 15 -62z m1358 47 c-6 -18 -3 -20 18 -15 36 9 41 -10 15 -56 -26 -46 -38 -37 -13 11 l16 31 -36 -15 c-39 -17 -40 -16 -23 31 13 35 34 47 23 13z m-565 -40 c0 -21 -24 -28 -35 -10 -8 14 3 30 21 30 8 0 14 -9 14 -20z m-348 -7 c-51 -2 -132 -2 -180 0 -48 1 -6 3 93 3 99 0 138 -2 87 -3z m256 0 c-21 -2 -55 -2 -75 0 -21 2 -4 4 37 4 41 0 58 -2 38 -4z m350 0 c-32 -2 -86 -2 -120 0 -35 2 -9 3 57 3 66 0 94 -1 63 -3z m-1144 -43 c24 -37 24 -54 -1 -29 -18 18 -55 1 -48 -22 6 -17 2 -18 -27 -13 -18 4 -35 7 -38 6 -33 0 -40 -4 -40 -22 0 -24 37 -41 70 -33 16 4 21 3 16 -5 -10 -17 -58 -15 -84 4 -31 21 -29 62 3 70 14 3 36 3 50 0 24 -6 35 7 15 19 -18 11 -11 27 6 17 29 -16 55 -3 48 24 -9 34 0 30 30 -16z m1541 9 l-7 -31 25 17 c28 18 42 7 32 -25 -8 -25 3 -26 21 -3 24 34 23 6 -2 -30 -29 -44 -47 -40 -38 9 7 37 0 42 -27 18 -33 -30 -50 1 -27 51 16 35 31 31 23 -6z m-1037 -26 l19 -26 22 22 c25 25 48 23 43 -5 -13 -71 -12 -84 1 -110 31 -60 42 -64 180 -65 77 0 134 4 147 11 25 14 39 5 21 -13 -8 -8 -60 -12 -181 -12 -152 0 -167 -2 -159 -16 18 -34 84 -50 182 -44 122 8 158 14 185 31 27 18 32 67 5 57 -16 -6 -16 -5 0 17 22 32 21 58 -3 95 -24 36 -25 58 -5 75 13 11 21 9 46 -9 l30 -22 26 20 c28 23 68 28 79 10 3 -6 1 -16 -5 -22 -16 -16 -13 -30 5 -23 22 9 54 -11 54 -34 0 -15 -16 -28 -55 -46 -78 -37 -79 -50 -12 -187 80 -160 110 -302 106 -495 -2 -97 -2 -97 22 -94 63 7 107 34 168 102 48 54 68 70 89 70 99 -1 93 -142 -14 -350 -78 -152 -204 -292 -365 -406 -64 -45 -81 -63 -108 -116 -30 -61 -31 -66 -25 -150 6 -81 5 -91 -20 -142 -49 -100 -144 -156 -265 -156 -83 1 -133 27 -176 94 -42 67 -59 76 -206 116 -121 34 -159 52 -159 75 0 20 24 24 161 27 132 3 151 12 169 76 8 32 6 40 -27 86 -85 120 -147 185 -306 323 -203 176 -274 252 -316 337 -35 72 -38 92 -14 118 25 28 59 22 213 -33 78 -27 151 -49 163 -47 21 3 22 9 28 123 10 193 58 328 159 450 l49 60 -47 6 -47 6 56 1 c47 2 57 5 68 26 22 39 10 59 -54 91 -84 42 -88 94 -6 80 27 -5 33 -3 28 8 -5 14 10 37 24 37 4 0 16 -12 27 -27z m148 -24 c9 -15 -11 -33 -30 -26 -9 4 -13 13 -10 22 7 17 30 20 40 4z m752 -6 c5 -18 -28 -29 -38 -12 -5 7 -6 17 -3 22 7 12 35 5 41 -10z m290 -41 c13 2 17 -4 15 -30 -1 -32 0 -32 33 -26 43 8 44 -7 4 -53 -36 -40 -37 -49 -7 -74 27 -22 10 -25 -21 -3 -28 20 -28 36 3 72 30 36 32 46 6 32 -35 -18 -52 -13 -49 18 3 28 -8 32 -44 17 -15 -6 -16 -2 -12 32 9 65 12 68 35 39 11 -15 28 -25 37 -24z m-1435 31 c-34 -2 -93 -2 -130 0 -37 2 -9 3 62 3 72 0 102 -1 68 -3z m615 0 c-32 -2 -86 -2 -120 0 -35 2 -9 3 57 3 66 0 94 -1 63 -3z m435 0 c-13 -2 -35 -2 -50 0 -16 2 -5 4 22 4 28 0 40 -2 28 -4z m-1477 -100 c-4 -4 -16 3 -26 17 -29 37 -24 49 7 18 15 -15 23 -31 19 -35z m-66 38 c0 -5 -4 -11 -9 -13 -5 -1 -13 -15 -16 -30 -7 -27 -5 -28 28 -28 20 0 39 -4 42 -10 10 -16 -14 -50 -36 -50 -12 0 -18 -4 -13 -11 14 -24 -14 -2 -49 37 -39 43 -51 69 -18 40 17 -15 19 -15 25 -1 3 9 6 24 6 34 0 18 18 41 32 41 4 0 8 -4 8 -9z m266 -30 c-22 -21 -46 0 -26 24 10 12 16 13 27 3 12 -10 12 -13 -1 -27z m267 12 c-40 -2 -106 -2 -145 0 -40 1 -8 3 72 3 80 0 112 -2 73 -3z m480 0 c-29 -2 -78 -2 -110 0 -32 2 -8 3 52 3 61 0 87 -1 58 -3z m165 0 c-10 -2 -28 -2 -40 0 -13 2 -5 4 17 4 22 1 32 -1 23 -4z m510 0 c-49 -2 -127 -2 -175 0 -49 1 -9 3 87 3 96 0 136 -2 88 -3z m-1253 -94 c0 -7 -8 -15 -17 -17 -18 -3 -25 18 -11 32 10 10 28 1 28 -15z m985 -9 c0 -21 -24 -28 -35 -10 -8 14 3 30 21 30 8 0 14 -9 14 -20z m-1127 3 c-40 -2 -107 -2 -150 0 -43 1 -10 3 72 3 83 0 118 -2 78 -3z m1515 0 c-53 -2 -143 -2 -200 0 -57 1 -13 3 97 3 110 0 156 -2 103 -3z m-1961 -145 c-75 -124 -122 -244 -153 -390 -25 -115 -25 -343 0 -456 49 -230 150 -423 304 -584 83 -86 92 -121 11 -42 -161 157 -286 390 -336 628 -21 100 -23 320 -4 426 27 149 93 315 178 449 51 80 52 54 0 -31z m2255 5 c113 -189 180 -434 177 -643 -2 -119 -17 -122 -18 -4 -1 134 -23 269 -61 386 -29 86 -99 234 -139 293 -22 32 -26 45 -13 45 4 0 28 -35 54 -77z m-214 34 c2 -12 -3 -17 -17 -17 -12 0 -21 6 -21 13 0 31 32 34 38 4z m-1754 -49 c9 -12 16 -19 16 -15 0 5 14 0 30 -10 17 -9 30 -22 30 -27 0 -5 -8 -2 -18 7 -17 16 -43 25 -29 10 8 -8 -11 -33 -25 -33 -6 0 -6 6 1 14 9 11 6 21 -15 45 -14 17 -21 31 -15 31 5 0 17 -10 25 -22z m1391 -7 c0 -16 -3 -27 -7 -24 -5 2 -8 15 -8 29 0 13 3 24 8 24 4 0 7 -13 7 -29z m53 -7 c-1 -9 -10 -20 -18 -22 -13 -5 -13 -3 -1 11 7 9 10 25 7 34 -6 14 -4 15 4 7 7 -7 10 -20 8 -30z m173 -17 c-6 -6 -11 -18 -11 -26 0 -11 3 -12 8 -5 9 15 57 30 48 16 -3 -6 -1 -14 5 -18 12 -7 9 12 -7 63 -4 13 -1 12 14 -6 10 -13 18 -34 16 -47 -1 -13 2 -26 7 -30 5 -3 7 -11 3 -17 -3 -7 4 -1 16 12 12 14 19 33 17 43 -3 10 -1 18 4 18 13 0 11 -44 -3 -58 -9 -9 -7 -20 7 -46 16 -29 17 -37 6 -50 -16 -19 -55 -22 -48 -3 2 6 12 12 22 12 24 0 29 16 11 40 -12 16 -16 17 -30 6 -9 -7 -16 -23 -16 -36 0 -12 -9 -30 -19 -39 -31 -28 -66 -9 -77 42 -8 41 -14 46 -30 24 -8 -12 -12 -27 -9 -32 3 -6 2 -10 -3 -10 -17 0 -22 54 -6 63 10 6 12 13 4 27 -12 23 -13 50 -1 50 5 0 7 -8 4 -18 -2 -10 4 -25 14 -35 18 -15 19 -15 22 16 2 18 4 40 5 50 3 26 30 41 34 21 2 -9 -1 -21 -7 -27z m-1841 -2 c-6 -8 -8 -20 -4 -27 5 -10 4 -10 -6 -1 -14 13 -7 43 11 43 8 0 8 -4 -1 -15z m48 -21 c-1 -9 -10 -19 -18 -21 -12 -4 -13 -3 -1 5 8 6 12 19 8 32 -4 16 -3 20 4 13 6 -6 9 -19 7 -29z m228 -13 c-3 -5 1 -14 9 -21 26 -21 16 -30 -14 -13 -22 13 -26 20 -17 30 12 14 30 18 22 4z m-102 -154 c28 -21 17 -52 -19 -52 -33 0 -45 25 -25 50 15 18 21 19 44 2z m189 -7 c-37 -22 -43 -53 -16 -82 19 -21 42 -23 67 -5 24 18 24 66 0 85 -12 9 -14 13 -4 10 47 -14 41 -102 -8 -115 -31 -7 -75 15 -80 41 -6 31 8 67 31 76 38 15 43 11 10 -10z m1363 -21 c3 -6 1 -16 -4 -21 -13 -13 -45 8 -36 23 7 12 31 11 40 -2z m299 -13 c-17 -12 -18 -17 -6 -42 12 -27 11 -28 -5 -12 -21 20 -12 68 13 68 15 0 14 -2 -2 -14z m60 -26 c0 -21 -6 -35 -15 -38 -12 -4 -13 -2 -2 9 15 16 16 55 2 62 -6 3 -5 4 2 3 8 -2 13 -17 13 -36z m-2155 -206 c0 -8 -9 -14 -20 -14 -19 0 -27 19 -14 33 10 9 34 -4 34 -19z m2112 -26 c-9 -9 -9 -15 1 -27 10 -14 10 -14 -5 -3 -11 9 -18 10 -23 2 -3 -5 -11 -10 -17 -10 -7 0 -6 5 2 15 6 8 9 19 5 24 -3 6 0 8 8 5 8 -3 18 0 22 6 4 6 10 9 13 5 3 -3 0 -11 -6 -17z m172 -194 c8 -20 -11 -44 -34 -44 -10 0 -23 6 -29 14 -18 21 -2 46 29 46 17 0 30 -7 34 -16z m-2159 -39 c29 -28 31 -42 9 -73 -30 -44 -114 -19 -114 35 0 28 33 63 60 63 12 0 32 -11 45 -25z m2316 -5 c10 -6 19 -19 19 -28 0 -43 -61 -58 -81 -20 -10 18 -8 24 11 40 26 21 26 21 51 8z m-60 -209 c-53 -157 -139 -311 -240 -428 -65 -76 -64 -56 1 24 121 148 194 293 249 493 10 33 14 39 17 23 2 -12 -10 -62 -27 -112z m-1896 85 c-11 -8 -16 -19 -12 -30 4 -10 3 -15 -3 -11 -14 9 -12 42 3 48 24 10 31 7 12 -7z m45 -22 c0 -13 -2 -24 -4 -24 -2 0 -13 -3 -23 -6 -17 -6 -17 -6 1 8 13 10 17 22 13 37 -3 11 -1 19 4 15 5 -3 9 -16 9 -30z m1579 -19 c34 -17 54 -65 41 -99 -12 -32 -48 -56 -83 -56 -37 0 -87 49 -87 85 0 27 40 75 62 74 7 0 3 -5 -9 -11 -12 -6 -27 -24 -34 -41 -35 -83 95 -137 136 -57 21 40 4 78 -45 102 -19 9 -29 17 -22 18 7 0 26 -7 41 -15z m-1589 -115 c9 -6 15 -29 16 -67 2 -32 6 -72 9 -89 5 -21 3 -34 -6 -39 -8 -5 -10 -4 -5 4 10 16 -3 73 -15 65 -5 -3 -7 -9 -4 -14 3 -4 -2 -13 -11 -20 -8 -7 -12 -20 -9 -29 3 -8 3 -12 -1 -9 -4 4 -16 1 -28 -7 -11 -8 -25 -15 -30 -15 -6 0 0 7 13 16 l22 16 -19 22 c-20 21 -21 76 -1 76 5 0 4 -11 -1 -24 -7 -19 -5 -28 10 -41 17 -16 19 -15 29 4 10 18 9 20 -6 14 -14 -5 -15 -3 -6 7 6 7 9 20 6 29 -3 12 -1 11 11 -3 18 -22 22 -6 6 23 -6 13 -17 17 -35 13 -24 -4 -53 -38 -41 -49 2 -3 1 -16 -4 -29 -6 -14 -6 -26 0 -29 5 -3 6 -13 3 -21 -5 -13 -8 -13 -19 -2 -11 10 -11 22 -3 51 9 32 7 42 -12 68 -18 25 -20 35 -10 55 6 13 18 24 28 24 15 0 15 -1 -2 -13 -11 -8 -14 -16 -8 -20 6 -4 9 -18 8 -32 -2 -14 0 -25 3 -25 11 1 42 68 34 73 -4 2 -2 3 3 1 6 -1 19 4 30 12 22 16 25 17 45 4z m47 -77 c-4 -3 -10 -3 -14 0 -3 4 0 7 7 7 7 0 10 -3 7 -7z m-197 -18 c-7 -8 -9 -23 -6 -32 5 -16 4 -15 -9 1 -15 20 -5 46 17 46 6 0 5 -7 -2 -15z m230 -20 c0 -28 -17 -42 -33 -26 -8 8 -6 15 8 24 11 9 15 19 10 27 -5 9 -4 11 3 6 7 -4 12 -18 12 -31z m1303 -22 c27 -28 44 -54 38 -57 -5 -4 -12 2 -16 13 -3 10 -15 27 -26 37 -20 18 -20 18 -14 -9 6 -21 4 -27 -9 -27 -9 0 -16 -4 -16 -9 0 -15 18 -23 25 -11 3 5 14 10 23 10 13 0 14 -2 4 -8 -10 -7 -10 -15 -2 -36 14 -39 13 -42 -10 -21 -12 11 -18 25 -15 34 3 8 3 12 -1 8 -4 -4 -16 1 -26 10 -18 16 -18 17 1 28 20 10 20 10 1 53 -24 53 -18 51 43 -15z m-1648 -33 c0 -22 -3 -26 -12 -18 -9 7 -18 6 -30 -3 -15 -13 -15 -12 -6 6 6 11 9 25 7 30 -2 6 6 11 19 11 18 1 22 -4 22 -26z m1307 -57 c22 -20 24 -66 2 -87 -35 -36 -104 -7 -104 42 0 54 62 81 102 45z m489 -219 c18 -22 -1 -49 -36 -49 -35 0 -54 27 -36 49 8 9 24 16 36 16 12 0 28 -7 36 -16z m-319 -21 c-5 -10 -7 -25 -5 -33 3 -9 0 -8 -7 3 -9 14 -9 22 0 33 17 19 23 18 12 -3z m-1402 -13 c24 -24 25 -38 3 -62 -23 -25 -68 -23 -87 4 -9 12 -16 26 -16 30 0 16 40 48 60 48 11 0 29 -9 40 -20z m1460 -4 c0 -8 -7 -20 -17 -27 -15 -13 -15 -12 -6 6 6 11 8 26 5 34 -3 8 0 11 7 7 6 -4 11 -13 11 -20z m-1099 -16 c23 -13 25 -33 4 -50 -30 -25 -79 16 -54 46 14 17 24 17 50 4z m1269 -27 c0 -11 -161 -113 -235 -150 -210 -106 -484 -156 -718 -133 -203 20 -346 62 -517 151 -103 54 -148 84 -139 94 4 3 39 -15 79 -39 39 -25 113 -63 163 -85 415 -181 927 -134 1284 119 69 49 83 56 83 43z m-419 -41 c-7 -13 -6 -23 1 -30 9 -9 9 -12 1 -12 -6 0 -14 6 -17 13 -5 10 -7 10 -12 0 -3 -7 -10 -13 -15 -13 -6 0 -6 7 0 19 6 10 7 21 3 25 -3 4 1 4 11 0 10 -3 17 -1 17 5 0 6 5 11 10 11 7 0 7 -6 1 -18z"/>
 <path d="M1230 2614 c0 -8 9 -14 20 -14 11 0 20 4 20 9 0 5 -9 11 -20 14 -13 3 -20 0 -20 -9z"/>
 <path d="M1650 2610 c0 -11 6 -20 14 -20 21 0 31 21 15 31 -22 14 -29 11 -29 -11z"/>
 <path d="M1000 2583 c1 -13 27 -43 37 -43 6 0 16 6 22 14 10 12 8 17 -8 25 -23 13 -51 14 -51 4z"/>
 <path d="M928 2503 c7 -3 16 -2 19 1 4 3 -2 6 -13 5 -11 0 -14 -3 -6 -6z"/>
 <path d="M2046 2555 c25 -19 40 -19 24 0 -7 8 -20 15 -28 15 -13 0 -12 -3 4 -15z"/>
 <path d="M797 2464 c-8 -8 1 -24 14 -24 5 0 9 7 9 15 0 15 -12 20 -23 9z"/>
 <path d="M1600 2460 c0 -5 5 -10 10 -10 6 0 10 5 10 10 0 6 -4 10 -10 10 -5 0 -10 -4 -10 -10z"/>
 <path d="M1710 2384 c0 -9 9 -27 20 -41 14 -18 20 -41 20 -77 0 -57 14 -48 25 16 4 21 11 38 17 38 10 0 5 -46 -8 -92 -9 -30 10 -19 26 15 10 21 30 39 60 54 53 25 60 49 13 46 -39 -4 -51 12 -27 38 16 18 16 19 -1 19 -9 0 -31 -11 -47 -26 l-31 -25 -26 25 c-31 30 -41 32 -41 10z"/>
 <path d="M1217 2369 c6 -21 4 -21 -42 -15 -63 10 -57 -10 12 -43 56 -26 79 -57 69 -93 -3 -13 -33 -54 -66 -93 -70 -82 -119 -171 -152 -275 -20 -67 -23 -94 -22 -245 0 -143 4 -183 22 -250 40 -143 72 -217 119 -267 23 -26 43 -44 44 -40 2 28 -2 201 -7 265 -6 66 -8 75 -19 60 -24 -32 -27 -6 -5 37 16 31 20 52 15 78 -10 63 12 225 41 298 34 84 111 166 173 185 28 8 46 20 51 35 5 13 19 28 31 34 17 10 19 14 8 21 -8 5 -25 9 -38 9 -19 0 -23 4 -19 24 4 21 0 25 -31 30 -22 3 -50 18 -69 37 -18 17 -32 26 -32 20 0 -6 -5 -11 -11 -11 -7 0 -9 11 -6 27 3 15 -3 49 -13 75 -10 27 -14 50 -10 53 10 6 14 1 29 -48 7 -20 21 -42 32 -47 18 -10 18 -9 -2 30 -16 30 -20 52 -16 81 5 38 4 40 -12 25 -23 -21 -38 -20 -51 4 -14 27 -30 26 -23 -1z"/>
 <path d="M1732 2159 c-45 -27 -67 -32 -157 -39 -58 -5 -110 -12 -115 -15 -16 -10 -1 -25 26 -25 37 0 43 -29 11 -52 -33 -24 -27 -38 16 -38 64 0 109 -21 161 -73 82 -84 112 -211 100 -427 l-7 -115 22 19 c34 31 36 10 2 -29 l-31 -36 0 -169 0 -170 42 30 c23 17 48 45 56 63 25 59 80 291 93 391 16 129 6 315 -21 426 -22 87 -117 290 -135 290 -5 0 -34 -14 -63 -31z"/>
 <path d="M1460 1970 c-87 -18 -156 -73 -199 -159 -40 -79 -55 -151 -55 -268 l-1 -102 34 -35 c35 -36 25 -51 -12 -18 -20 17 -20 16 -13 -77 3 -52 6 -139 6 -193 l0 -99 39 -42 39 -42 24 23 c31 29 49 28 88 -4 l31 -27 28 27 c34 33 54 33 85 0 l24 -27 23 27 c29 33 52 33 78 -1 16 -23 23 -26 38 -17 16 10 19 32 23 205 5 184 4 196 -16 236 -24 46 -19 67 7 32 15 -20 16 -16 23 87 11 189 -21 336 -88 406 -56 57 -132 82 -206 68z"/>
 <path d="M2213 1633 c-16 -16 -41 -44 -56 -65 -31 -41 -83 -69 -141 -77 l-40 -6 -22 -114 c-12 -62 -34 -151 -49 -198 -14 -46 -25 -89 -23 -94 6 -17 151 134 201 208 52 79 56 88 28 73 -49 -26 -40 0 9 28 25 14 48 38 61 64 22 44 89 197 89 204 0 13 -32 0 -57 -23z"/>
 <path d="M2275 1615 c-9 -22 -36 -82 -60 -132 -38 -81 -42 -97 -34 -125 11 -40 11 -48 1 -48 -5 0 -12 12 -18 26 -9 25 -10 24 -53 -42 -61 -92 -162 -198 -246 -254 -38 -26 -87 -66 -107 -89 -42 -47 -73 -53 -90 -16 -13 29 -30 32 -48 9 -28 -33 -48 -36 -72 -9 -27 32 -45 32 -74 0 -29 -31 -35 -31 -72 0 -36 30 -44 31 -67 5 -10 -11 -25 -20 -33 -20 -8 0 -80 67 -161 148 -80 82 -174 172 -209 200 -57 47 -68 52 -113 52 -27 0 -49 5 -49 10 0 6 16 10 35 10 l35 0 -92 78 c-95 79 -131 125 -131 168 1 29 -13 32 -22 3 -9 -29 42 -130 102 -201 26 -31 118 -117 203 -190 191 -163 239 -212 314 -316 52 -74 58 -86 54 -123 -4 -40 -3 -42 38 -59 66 -29 72 -72 18 -139 -20 -26 -34 -54 -32 -65 3 -20 9 -21 123 -17 122 3 175 17 175 45 0 20 -18 32 -83 56 -98 37 -96 83 6 100 72 11 73 12 98 66 26 54 69 93 145 130 196 94 395 297 489 499 60 127 80 226 55 265 -7 11 -13 6 -25 -25z m-891 -1080 c7 -19 -20 -46 -39 -39 -8 4 -15 17 -15 30 0 19 5 24 24 24 13 0 26 -7 30 -15z"/>
 <path d="M636 1602 c-17 -28 77 -143 175 -213 l31 -22 -7 22 c-3 12 -2 21 4 21 5 0 14 -15 20 -32 7 -22 44 -62 111 -120 55 -49 102 -88 104 -88 2 0 -9 38 -24 84 -22 65 -60 224 -60 252 0 2 -11 4 -25 4 -14 0 -88 22 -163 50 -141 51 -157 56 -166 42z"/>
 <path d="M1730 843 c-48 -32 -82 -69 -106 -115 -19 -38 -31 -49 -61 -57 -21 -6 -47 -11 -59 -11 -11 0 -28 -6 -38 -13 -23 -17 -11 -27 59 -52 89 -32 106 -62 59 -106 -23 -22 -35 -24 -137 -27 -142 -4 -147 -6 -117 -37 33 -35 83 -48 159 -43 79 6 135 32 181 84 53 61 63 97 56 194 -5 77 -4 90 19 138 14 30 25 56 25 58 0 8 -15 3 -40 -13z"/>
 <path d="M1227 677 c-25 -20 -43 -22 -158 -26 -71 -1 -129 -7 -129 -12 0 -4 30 -17 68 -28 37 -10 102 -29 144 -41 42 -13 86 -31 98 -42 19 -18 21 -18 27 -1 3 10 19 33 35 51 15 18 28 42 28 52 0 20 -33 60 -49 60 -5 0 -15 2 -23 4 -7 3 -26 -5 -41 -17z"/>
 <path d="M1370 2360 c0 -5 5 -10 11 -10 5 0 7 5 4 10 -3 6 -8 10 -11 10 -2 0 -4 -4 -4 -10z"/>
 <path d="M2120 2360 c0 -5 5 -10 11 -10 5 0 7 5 4 10 -3 6 -8 10 -11 10 -2 0 -4 -4 -4 -10z"/>
 <path d="M2391 2314 c0 -11 3 -14 6 -6 3 7 2 16 -1 19 -3 4 -6 -2 -5 -13z"/>
 <path d="M2430 2300 c0 -7 3 -10 7 -7 3 4 3 10 0 14 -4 3 -7 0 -7 -7z"/>
 <path d="M495 2201 c-19 -8 -19 -8 1 -19 16 -8 24 -8 32 0 25 25 8 35 -33 19z"/>
 <path d="M755 2270 c3 -5 8 -10 11 -10 2 0 4 5 4 10 0 6 -5 10 -11 10 -5 0 -7 -4 -4 -10z"/>
 <path d="M920 2180 c0 -5 5 -10 10 -10 6 0 10 5 10 10 0 6 -4 10 -10 10 -5 0 -10 -4 -10 -10z"/>
 <path d="M1900 2170 c0 -5 5 -10 10 -10 6 0 10 5 10 10 0 6 -4 10 -10 10 -5 0 -10 -4 -10 -10z"/>
 <path d="M2256 1945 c-11 -8 -17 -18 -13 -21 4 -4 13 -1 22 6 12 10 18 10 30 0 35 -29 6 -61 -37 -40 -21 10 -21 10 -5 -3 11 -9 14 -16 7 -19 -17 -5 6 -58 25 -58 17 0 39 46 31 67 -3 7 -1 13 4 13 17 0 11 36 -8 53 -22 20 -31 21 -56 2z m48 -80 c-6 -14 -44 -22 -44 -10 0 4 29 19 47 24 1 1 0 -6 -3 -14z"/>
 <path d="M2264 1919 c-10 -17 13 -36 27 -22 12 12 4 33 -11 33 -5 0 -12 -5 -16 -11z"/>
 <path d="M402 1264 c-24 -17 -29 -53 -10 -72 20 -20 65 -14 82 10 20 29 20 34 -4 58 -24 24 -38 25 -68 4z"/>
 <path d="M2745 1241 c-9 -16 3 -31 26 -31 14 0 19 6 17 17 -4 20 -33 29 -43 14z"/>
 <path d="M833 973 c-20 -8 -15 -27 13 -52 l25 -22 -3 37 c-3 37 -12 47 -35 37z"/>
 <path d="M800 930 c0 -5 7 -10 16 -10 8 0 12 5 9 10 -3 6 -10 10 -16 10 -5 0 -9 -4 -9 -10z"/>
 <path d="M1836 744 c-19 -18 -21 -55 -4 -72 15 -15 61 -15 76 0 19 19 15 66 -7 78 -27 14 -47 13 -65 -6z"/>
 <path d="M2344 525 c-7 -18 3 -35 21 -35 21 0 28 19 15 35 -16 19 -29 19 -36 0z"/>
 <path d="M611 486 c-13 -16 -5 -42 15 -50 19 -7 54 10 54 27 0 33 -48 49 -69 23z"/>
 </g>

</svg>
