<?xml version="1.0" encoding="UTF-8" standalone="no"?>
<svg
   xmlns:dc="http://purl.org/dc/elements/1.1/"
   xmlns:cc="http://creativecommons.org/ns#"
   xmlns:rdf="http://www.w3.org/1999/02/22-rdf-syntax-ns#"
   xmlns:svg="http://www.w3.org/2000/svg"
   xmlns="http://www.w3.org/2000/svg"
   xmlns:sodipodi="http://sodipodi.sourceforge.net/DTD/sodipodi-0.dtd"
   xmlns:inkscape="http://www.inkscape.org/namespaces/inkscape"
   version="1.0"
   width="284.40842"
   height="272.55032"
   viewBox="0 0 2844.0842 2725.5032"
   preserveAspectRatio="xMidYMid meet"
   id="svg158"
   sodipodi:docname="penguin++.svg"
   inkscape:version="0.92.4 5da689c313, 2019-01-14">
  <metadata
     id="metadata164">
    <rdf:RDF>
      <cc:Work
         rdf:about="">
        <dc:format>image/svg+xml</dc:format>
        <dc:type
           rdf:resource="http://purl.org/dc/dcmitype/StillImage" />
        <dc:title></dc:title>
      </cc:Work>
    </rdf:RDF>
  </metadata>
  <defs
     id="defs162" />
  <sodipodi:namedview
     pagecolor="#ffffff"
     bordercolor="#666666"
     borderopacity="1"
     objecttolerance="10"
     gridtolerance="10"
     guidetolerance="10"
     inkscape:pageopacity="0"
     inkscape:pageshadow="2"
     inkscape:window-width="1600"
     inkscape:window-height="865"
     id="namedview160"
     showgrid="false"
     fit-margin-top="10"
     fit-margin-left="10"
     fit-margin-right="10"
     fit-margin-bottom="10"
     inkscape:zoom="1.6275862"
     inkscape:cx="74.349365"
     inkscape:cy="154.40733"
     inkscape:window-x="0"
     inkscape:window-y="35"
     inkscape:window-maximized="1"
     inkscape:current-layer="svg158" />
  <path
     style="fill:#8b0012;stroke:none;fill-opacity:1"
     inkscape:connector-curvature="0"
     id="path5"
     d="m 1144.0843,2568.5033 c 0,-32 5,-65 10,-73 8,-13 10,-13 10,2 0,12 11,19 35,24 42,8 41,24 -3,43 -23,10 -32,21 -32,38 0,13 -4,23 -10,23 -6,0 -10,-26 -10,-57 z m 60,-24 c 0,-5 -9,-9 -20,-9 -11,0 -20,6 -20,14 0,9 7,12 20,9 11,-3 20,-9 20,-14 z" />
  <path
     style="fill:#8b0012;stroke:none;fill-opacity:1"
     inkscape:connector-curvature="0"
     id="path7"
     d="m 1435.0843,2593.5033 c 0,-18 4,-42 9,-53 7,-15 9,-9 7,24 -1,25 3,46 9,48 20,7 64,-37 65,-65 1,-17 4,-11 9,18 4,25 4,49 -1,55 -6,5 -9,2 -9,-9 0,-16 -2,-16 -22,-2 -12,9 -33,16 -45,16 -19,0 -23,-5 -22,-32 z" />
  <path
     style="fill:#8b0012;stroke:none;fill-opacity:1"
     inkscape:connector-curvature="0"
     id="path9"
     d="m 1572.0843,2619.5033 c -5,-4 -8,-29 -8,-56 v -49 l 48,2 c 26,0 57,-2 70,-6 14,-5 22,-3 22,4 0,6 -6,11 -13,11 -7,0 -19,6 -25,12 -10,10 -5,16 25,29 l 38,16 -28,18 c -15,10 -31,14 -35,10 -4,-4 -1,-10 7,-13 10,-3 8,-9 -9,-22 -21,-16 -25,-16 -51,-1 -16,9 -30,24 -31,34 -2,11 -6,15 -10,11 z m 41,-63 c 16,-10 6,-31 -15,-31 -8,0 -14,9 -14,20 0,22 7,25 29,11 z" />
  <path
     style="fill:#8b0012;stroke:none;fill-opacity:1"
     inkscape:connector-curvature="0"
     id="path11"
     d="m 1247.0843,2600.5033 c -8,-9 -9,-16 -3,-20 6,-3 10,-22 10,-42 0,-20 3,-33 8,-29 4,4 7,20 7,34 0,21 4,26 20,24 21,-4 37,-21 29,-33 -2,-4 0,-10 6,-14 6,-4 10,13 9,47 -1,29 -4,43 -6,31 -5,-26 -4,-26 -38,-13 -14,5 -23,14 -20,20 9,15 -8,11 -22,-5 z" />
  <path
     style="fill:#8b0012;stroke:none;fill-opacity:1"
     inkscape:connector-curvature="0"
     id="path13"
     d="m 1389.0843,2576.5033 c 0,-22 4,-43 8,-47 4,-4 7,14 7,39 0,26 -3,47 -7,47 -5,0 -8,-18 -8,-39 z" />
  <path
     style="fill:#8b0012;stroke:none;fill-opacity:1"
     inkscape:connector-curvature="0"
     id="path15"
     d="m 1853.0843,2530.5033 c -7,-19 -19,-35 -26,-35 -7,0 -13,-4 -13,-8 0,-12 79,-47 86,-39 4,3 -5,12 -20,18 -31,14 -29,34 3,33 25,-1 28,11 5,20 -10,4 -13,13 -9,26 11,35 -13,21 -26,-15 z" />
  <path
     style="fill:#8b0012;stroke:none;fill-opacity:1"
     inkscape:connector-curvature="0"
     id="path17"
     d="m 909.08427,2524.5033 c 11,-38 34,-69 51,-69 26,0 54.00003,20 54.00003,39 0,26 -19.00003,39 -69.00003,47 -42,7 -43,6 -36,-17 z m 76,-10 c 16.00003,-8 18.00003,-13 8,-25 -6,-8 -16,-14 -22,-14 -10,0 -36,30 -37,43 0,10 28,9 51,-4 z" />
  <path
     style="fill:#8b0012;stroke:none;fill-opacity:1"
     inkscape:connector-curvature="0"
     id="path19"
     d="m 836.08427,2495.5033 c -14,-22 -21,-27 -30,-18 -25,25 -22,-2 4,-41 27,-41 49,-56 37,-25 -5,13 -2,15 14,10 10,-3 28,0 39,8 18,14 18,15 -9,25 -16,6 -33,11 -38,11 -11,0 8,41 25,52 7,5 4,8 -7,8 -9,0 -25,-13 -35,-30 z m 45,-56 c -3,-3 -12,-4 -19,-1 -8,3 -5,6 6,6 11,1 17,-2 13,-5 z" />
  <path
     style="fill:#8b0012;stroke:none;fill-opacity:1"
     inkscape:connector-curvature="0"
     id="path21"
     d="m 1942.0843,2513.5033 c -9,-7 -19,-23 -22,-34 -5,-17 0,-26 27,-43 49,-30 57,-26 17,7 -39,33 -27,51 19,27 17,-8 32,-15 34,-15 10,0 3,37 -11,53 -18,20 -42,22 -64,5 z m 62,-23 c 16,-19 1,-19 -24,0 -16,12 -17,15 -4,15 8,0 21,-7 28,-15 z" />
  <path
     style="fill:#8b0012;stroke:none;fill-opacity:1"
     inkscape:connector-curvature="0"
     id="path23"
     d="m 2075.0843,2466.5033 c -6,-10 -24,-21 -41,-24 -16,-4 -30,-11 -30,-16 0,-6 13,-8 32,-4 28,6 31,4 26,-15 -7,-26 7,-30 15,-4 3,9 10,32 15,50 11,35 -1,44 -17,13 z" />
  <path
     style="fill:#8b0012;stroke:none;fill-opacity:1"
     inkscape:connector-curvature="0"
     id="path25"
     d="m 744.08427,2448.5033 c 0,-25 -31,-46 -54,-37 -9,3 -16,1 -16,-5 0,-9 78,-61 93,-61 11,0 3,83 -11,105 -11,20 -11,20 -12,-2 z m 10,-58 c 0,-8 -4,-15 -9,-15 -13,0 -22,16 -14,24 11,11 23,6 23,-9 z" />
  <path
     style="fill:#8b0012;stroke:none;fill-opacity:1"
     inkscape:connector-curvature="0"
     id="path27"
     d="m 2106.0843,2422.5033 c -17,-47 -16,-48 23,-31 l 36,15 -16,-31 c -25,-48 -13,-57 13,-11 26,46 21,65 -15,56 -21,-5 -24,-3 -18,15 11,34 -10,22 -23,-13 z" />
  <path
     style="fill:#8b0012;stroke:none;fill-opacity:1"
     inkscape:connector-curvature="0"
     id="path29"
     d="m 1529.0843,2405.5033 c -8,-14 3,-30 21,-30 8,0 14,9 14,20 0,21 -24,28 -35,10 z m 25,-10 c 0,-5 -4,-10 -10,-10 -5,0 -10,5 -10,10 0,6 5,10 10,10 6,0 10,-4 10,-10 z" />
  <path
     style="fill:#8b0012;stroke:none;fill-opacity:1"
     inkscape:connector-curvature="0"
     id="path31"
     d="m 1036.0843,2388.5033 c 48,-2 129,-2 180,0 51,1 12,3 -87,3 -99,0 -141.00003,-2 -93,-3 z" />
  <path
     style="fill:#8b0012;stroke:none;fill-opacity:1"
     inkscape:connector-curvature="0"
     id="path33"
     d="m 1397.0843,2388.5033 c 20,-2 54,-2 75,0 20,2 3,4 -38,4 -41,0 -58,-2 -37,-4 z" />
  <path
     style="fill:#8b0012;stroke:none;fill-opacity:1"
     inkscape:connector-curvature="0"
     id="path35"
     d="m 1702.0843,2388.5033 c 34,-2 88,-2 120,0 31,2 3,3 -63,3 -66,0 -92,-1 -57,-3 z" />
  <path
     style="fill:#8b0012;stroke:none;fill-opacity:1"
     inkscape:connector-curvature="0"
     id="path37"
     d="m 648.08427,2361.5033 c 7,-27 -19,-40 -48,-24 -17,10 -24,-6 -6,-17 20,-12 9,-25 -15,-19 -14,3 -36,3 -50,0 -32,-8 -34,-49 -3,-70 26,-19 74,-21 84,-4 5,8 0,9 -16,5 -33,-8 -70,9 -70,33 0,18 7,22 40,22 3,1 20,-2 38,-6 29,-5 33,-4 27,13 -7,23 30,40 48,22 25,-25 25,-8 1,29 -30,46 -39,50 -30,16 z" />
  <path
     style="fill:#8b0012;stroke:none;fill-opacity:1"
     inkscape:connector-curvature="0"
     id="path39"
     d="m 2196.0843,2360.5033 c -23,-50 -6,-81 27,-51 27,24 34,19 27,-18 -9,-49 9,-53 38,-9 25,36 26,64 2,30 -18,-23 -29,-22 -21,3 10,32 -4,43 -32,25 l -25,-17 7,31 c 8,37 -7,41 -23,6 z" />
  <path
     style="fill:#8b0012;stroke:none;fill-opacity:1"
     inkscape:connector-curvature="0"
     id="path41"
     d="m 1137.0843,2344.5033 c -6,-6 -9,-18 -6,-26 5,-11 -1,-13 -28,-8 -82,14 -78,-38 6,-80 64,-32 76,-52 54,-91 -11,-21 -21,-24 -68,-26 l -56,-1 47,-6 47,-6 -49,-60 c -101.00003,-122 -149.00003,-257 -159.00003,-450 -6,-114 -7,-120 -28,-123 -12,-2 -85,20 -163,47 -154,55 -188,61 -213,33 -24,-26 -21,-46 14,-118 42,-85 113,-161 316,-337 159.00003,-138.00001 221.00003,-203.00001 306.00003,-323.00001 33,-46 35,-54 27,-86 -18,-64 -37,-73 -169,-76 -137.00003,-3 -161.00003,-7 -161.00003,-27 0,-23 38,-41 159.00003,-75 147,-40 164,-49 206,-116 43,-67 93,-93 176,-94 121,0 216,56 265,156 25,51 26,61 20,142 -6,84 -5,89 25,150 27,53 44,71 108,116 161,114 287,254.00001 365,406.00001 107,208 113,349 14,350 -21,0 -41,-16 -89,-70 -61,-68 -105,-95 -168,-102 -24,-3 -24,-3 -22,94 4,193 -26,335 -106,495 -67,137 -66,150 12,187 39,18 55,31 55,46 0,23 -32,43 -54,34 -18,-7 -21,7 -5,23 6,6 8,16 5,22 -11,18 -51,13 -79,-10 l -26,-20 -30,22 c -25,18 -33,20 -46,9 -20,-17 -19,-39 5,-75 24,-37 25,-63 3,-95 -16,-22 -16,-23 0,-17 27,10 22,-39 -5,-57 -27,-17 -63,-23 -185,-31 -98,-6 -164,10 -182,44 -8,14 7,16 159,16 121,0 173,4 181,12 18,18 4,27 -21,13 -13,-7 -70,-11 -147,-11 -138,1 -149,5 -180,65 -13,26 -14,39 -1,110 5,28 -18,30 -43,5 l -22,-22 -19,26 c -22,30 -29,32 -45,16 z m 548,-35 26,-25 31,25 c 16,15 38,26 47,26 17,0 17,-1 1,-19 -24,-26 -12,-42 27,-38 47,3 40,-21 -13,-46 -30,-15 -50,-33 -60,-54 -16,-34 -35,-45 -26,-15 13,46 18,92 8,92 -6,0 -13,-17 -17,-38 -11,-64 -25,-73 -25,-16 0,36 -6,59 -20,77 -20,25 -27,57 -13,57 4,0 19,-11 34,-26 z m -511,-4 c 13,-24 28,-25 51,-4 16,15 17,13 12,-25 -4,-29 0,-51 16,-81 20,-39 20,-40 2,-30 -11,5 -25,27 -32,47 -15,49 -19,54 -29,48 -4,-3 0,-26 10,-53 10,-26 16,-60 13,-75 -3,-16 -1,-27 6,-27 6,0 11,5 11,11 0,6 14,-3 32,-20 19,-19 47,-34 69,-37 31,-5 35,-9 31,-30 -4,-20 0,-24 19,-24 13,0 30,-4 38,-9 11,-7 9,-11 -8,-21 -12,-6 -26,-21 -31,-34 -5,-15 -23,-27 -51,-35 -62,-19 -139,-101 -173,-185 -29,-73 -51,-235 -41,-298 5,-26 1,-47 -15,-78 -22,-43 -19,-69 5,-37 11,15 13,6 19,-60 5,-64 9,-237 7,-265.00001 -1,-4 -21,14 -44,40.00001 -47,50 -79,124 -119.00003,267 -18,67 -22,107 -22,250 -1,151 2,178 22,245 33.00003,104 82.00003,193 152.00003,275 33,39 63,80 66,93 10,36 -13,67 -69,93 -69,33 -75,53 -12,43 46,-6 48,-6 42,15 -7,27 9,28 23,1 z m 617,-282 c 65,-130 92,-238 100,-394 7,-148 -7,-274 -52,-449 -43,-168 -52,-188.00001 -103,-225.00001 l -42,-30 v 170.00001 169 l 31,36 c 34,39 32,60 -2,29 l -22,-19 7,115 c 12,216 -18,343 -100,427 -52,52 -97,73 -161,73 -43,0 -49,14 -16,38 32,23 26,52 -11,52 -27,0 -42,15 -26,25 5,3 57,10 115,15 90,7 112,12 157,39 29,17 58,31 63,31 6,0 33,-46 62,-102 z m -258,-136 c 115,-53 170,-213 155,-456 -7,-103 -8,-107 -23,-87 -26,35 -31,14 -7,-32 20,-40 21,-52 16,-236 -4,-173.00001 -7,-195.00001 -23,-205.00001 -15,-9 -22,-6 -38,17 -26,34 -49,34 -78,1 l -23,-27 -24,27 c -31,33 -51,33 -85,0 l -28,-27 -31,27 c -39,32 -57,33 -88,4 l -24,-23 -39,42 -39,42 v 99.00001 c 0,54 -3,141 -6,193 -7,93 -7,94 13,77 37,-33 47,-18 12,18 l -34,35 1,102 c 0,117 15,189 55,268 69,138 213,198 338,141 z m 671,-296 c 0,-7 -67,-160 -89,-204 -13,-26 -36,-50 -61,-64 -49,-28 -58,-54 -9,-28 28,15 24,6 -28,-73 -50,-74 -195,-225.00001 -201,-208 -2,5 9,48 23,94 15,47 37,136 49,198 l 22,114 40,6 c 58,8 110,36 141,77 37,51 82,92 99,92 8,0 14,-2 14,-4 z m 40,-64 c 0,-54 -20,-122 -65,-217 -94,-202 -293,-405.00001 -489,-499.00001 -76,-37 -119,-76 -145,-130 -25,-54 -26,-55 -98,-66 -102,-17 -104,-63 -6,-100 65,-24 83,-36 83,-56 0,-28 -53,-42 -175,-45 -114,-4 -120,-3 -123,17 -2,11 12,39 32,65 54,67 48,110 -18,139 -41,17 -42,19 -38,59 4,37 -2,49 -54,123 -75,104 -123,153 -314.00003,316.00001 -85,73 -177,159 -203,190 -60,71 -111,172 -102,201 9,29 23,26 22,-3 0,-43 36,-89 131,-168 l 92,-78 h -35 c -19,0 -35,-4 -35,-10 0,-5 22,-10 49,-10 45,0 56,-5 113,-52 35,-28 129,-118 209.00003,-200 81,-81.00001 153,-148.00001 161,-148.00001 8,0 23,9 33,20 23,26 31,25 67,-5 37,-31 43,-31 72,0 29,32 47,32 74,0 24,-27 44,-24 72,9 18,23 35,20 48,-9 17,-37 48,-31 90,16 20,23 69,63 107,89 84,56.00001 185,162.00001 246,254.00001 43,66 44,67 53,42 6,-14 13,-26 18,-26 10,0 10,8 -1,48 -8,28 -4,44 34,125 24,50 51,110 60,132 12,31 18,36 25,25 5,-8 10,-30 10,-48 z m -1508.00003,-32 c 75,-28 149,-50 163,-50 14,0 25,-2 25,-4 0,-28 38,-187 60,-252 15,-46 26.00003,-84 24.00003,-84 -2,0 -49.00003,39 -104.00003,88 -67,58 -104,98 -111,120 -6,17 -15,32 -20,32 -6,0 -7,-9 -4,-21 l 7,-22 -31,22 c -122,87 -218,221 -158,221 7,0 74,-23 149,-50 z M 1704.0843,791.50329 c 0,-2 -11,-28 -25,-58 -23,-48 -24,-61 -19,-138 7,-97 -3,-133 -56,-194 -46,-52 -102,-78 -181,-84 -76,-5 -126,8 -159,43 -30,31 -25,33 117,37 102,3 114,5 137,27 47,44 30,74 -59,106 -70,25 -82,35 -59,52 10,7 27,13 38,13 12,0 38,5 59,11 30,8 42,19 61,57 13,26 37,59 53,73 45,41 93,69 93,55 z m -479,-166 c 16,0 49,-40 49,-60 0,-10 -13,-34 -28,-52 -16,-18 -32,-41 -35,-51 -6,-17 -8,-17 -27,1 -12,11 -56,29 -98,42 -42,12 -107.00003,31 -144.00003,41 -38,11 -68,24 -68,28 0,5 58,11 129.00003,12 115,4 133,6 158,26 15,12 34,20 41,17 8,-2 18,-4 23,-4 z" />
  <path
     style="fill:#8b0012;stroke:none;fill-opacity:1"
     inkscape:connector-curvature="0"
     id="path43"
     d="m 1264.0843,461.50329 c 0,-29 24,-40 44,-20 20,20 9,44 -20,44 -19,0 -24,-5 -24,-24 z" />
  <path
     style="fill:#8b0012;stroke:none;fill-opacity:1"
     inkscape:connector-curvature="0"
     id="path45"
     d="m 1290.0843,2300.5033 c -3,-9 1,-18 10,-22 19,-7 39,11 30,26 -10,16 -33,13 -40,-4 z m 29,-5 c 3,-5 1,-10 -4,-10 -6,0 -11,5 -11,10 0,6 2,10 4,10 3,0 8,-4 11,-10 z" />
  <path
     style="fill:#8b0012;stroke:none;fill-opacity:1"
     inkscape:connector-curvature="0"
     id="path47"
     d="m 2041.0843,2308.5033 c -3,-5 -2,-15 3,-22 10,-17 43,-6 38,12 -6,15 -34,22 -41,10 z m 28,-13 c 3,-5 1,-10 -4,-10 -6,0 -11,5 -11,10 0,6 2,10 4,10 3,0 8,-4 11,-10 z" />
  <path
     style="fill:#8b0012;stroke:none;fill-opacity:1"
     inkscape:connector-curvature="0"
     id="path49"
     d="m 2310.0843,2294.5033 c -2,-8 -7,-31 -10,-52 -4,-34 -3,-38 12,-32 36,15 47,11 44,-17 -3,-31 14,-36 49,-18 26,14 24,4 -6,-32 -31,-36 -31,-52 -3,-72 31,-22 48,-19 21,3 -30,25 -29,34 7,74 40,46 39,61 -4,53 -33,-6 -34,-6 -33,26 2,26 -2,32 -15,30 -9,-1 -26,9 -37,24 -14,18 -22,22 -25,13 z m 21,-51 c -3,-8 -6,-5 -6,6 -1,11 2,17 5,13 3,-3 4,-12 1,-19 z m 40,-15 c -4,-3 -7,0 -7,7 0,7 3,10 7,7 3,-4 3,-10 0,-14 z" />
  <path
     style="fill:#8b0012;stroke:none;fill-opacity:1"
     inkscape:connector-curvature="0"
     id="path51"
     d="m 807.08427,2288.5033 c 37,-2 96,-2 130,0 34,2 4,3 -68,3 -71,0 -99,-1 -62,-3 z" />
  <path
     style="fill:#8b0012;stroke:none;fill-opacity:1"
     inkscape:connector-curvature="0"
     id="path53"
     d="m 1432.0843,2288.5033 c 34,-2 88,-2 120,0 31,2 3,3 -63,3 -66,0 -92,-1 -57,-3 z" />
  <path
     style="fill:#8b0012;stroke:none;fill-opacity:1"
     inkscape:connector-curvature="0"
     id="path55"
     d="m 1937.0843,2288.5033 c 15,-2 37,-2 50,0 12,2 0,4 -28,4 -27,0 -38,-2 -22,-4 z" />
  <path
     style="fill:#8b0012;stroke:none;fill-opacity:1"
     inkscape:connector-curvature="0"
     id="path57"
     d="m 464.08427,2240.5033 c 1,-18 38,-60 46,-52 4,4 -4,20 -19,35 -15,14 -27,22 -27,17 z" />
  <path
     style="fill:#8b0012;stroke:none;fill-opacity:1"
     inkscape:connector-curvature="0"
     id="path59"
     d="m 416.08427,2223.5033 c -7,-7 -12,-20 -12,-29 0,-10 -3,-25 -6,-34 -6,-14 -8,-14 -25,1 -33,29 -21,3 18,-40 35,-39 63,-61 49,-37 -5,7 1,11 13,11 22,0 46,34 36,50 -3,6 -22,10 -42,10 -33,0 -35,1 -28,28 3,15 11,29 16,30 11,4 12,22 1,22 -4,0 -13,-5 -20,-12 z m 58,-86 c 0,-20 -23,-31 -44,-20 -20,11 -20,11 -1,19 27,10 45,11 45,1 z" />
  <path
     style="fill:#8b0012;stroke:none;fill-opacity:1"
     inkscape:connector-curvature="0"
     id="path61"
     d="m 684.08427,2220.5033 c -20,-24 4,-45 26,-24 13,14 13,17 1,27 -11,10 -17,9 -27,-3 z m 20,-15 c 0,-5 -2,-10 -4,-10 -3,0 -8,5 -11,10 -3,6 -1,10 4,10 6,0 11,-4 11,-10 z" />
  <path
     style="fill:#8b0012;stroke:none;fill-opacity:1"
     inkscape:connector-curvature="0"
     id="path63"
     d="m 832.08427,2208.5033 c 39,-2 105,-2 145,0 39.00003,1 7,3 -73,3 -80,0 -112,-2 -72,-3 z" />
  <path
     style="fill:#8b0012;stroke:none;fill-opacity:1"
     inkscape:connector-curvature="0"
     id="path65"
     d="m 1347.0843,2208.5033 c 32,-2 81,-2 110,0 29,2 3,3 -58,3 -60,0 -84,-1 -52,-3 z" />
  <path
     style="fill:#8b0012;stroke:none;fill-opacity:1"
     inkscape:connector-curvature="0"
     id="path67"
     d="m 1582.0843,2208.5033 c 12,-2 30,-2 40,0 9,3 -1,5 -23,4 -22,0 -30,-2 -17,-4 z" />
  <path
     style="fill:#8b0012;stroke:none;fill-opacity:1"
     inkscape:connector-curvature="0"
     id="path69"
     d="m 1957.0843,2208.5033 c 48,-2 126,-2 175,0 48,1 8,3 -88,3 -96,0 -136,-2 -87,-3 z" />
  <path
     style="fill:#8b0012;stroke:none;fill-opacity:1"
     inkscape:connector-curvature="0"
     id="path71"
     d="m 851.08427,2129.5033 c -14,-14 -7,-35 11,-32 9,2 17,10 17,17 0,16 -18,25 -28,15 z m 23,-14 c 0,-5 -4,-10 -10,-10 -5,0 -10,5 -10,10 0,6 5,10 10,10 6,0 10,-4 10,-10 z" />
  <path
     style="fill:#8b0012;stroke:none;fill-opacity:1"
     inkscape:connector-curvature="0"
     id="path73"
     d="m 1829.0843,2115.5033 c -8,-14 3,-30 21,-30 8,0 14,9 14,20 0,21 -24,28 -35,10 z m 25,-10 c 0,-5 -4,-10 -10,-10 -5,0 -10,5 -10,10 0,6 5,10 10,10 6,0 10,-4 10,-10 z" />
  <path
     style="fill:#8b0012;stroke:none;fill-opacity:1"
     inkscape:connector-curvature="0"
     id="path75"
     d="m 587.08427,2108.5033 c 43,-2 110,-2 150,0 40,1 5,3 -78,3 -82,0 -115,-2 -72,-3 z" />
  <path
     style="fill:#8b0012;stroke:none;fill-opacity:1"
     inkscape:connector-curvature="0"
     id="path77"
     d="m 2052.0843,2108.5033 c 57,-2 147,-2 200,0 53,1 7,3 -103,3 -110,0 -154,-2 -97,-3 z" />
  <path
     style="fill:#8b0012;stroke:none;fill-opacity:1"
     inkscape:connector-curvature="0"
     id="path79"
     d="m 291.08427,1994.5033 c -85,-134 -151,-300 -178,-449 -19,-106 -17,-326 4,-426 50,-238.00001 175,-471.00001 336,-628.00001 81,-79 72,-44 -11,42 -154,161 -255,354 -304,584.00001 -25,113 -25,341 0,456 31,146 78,266 153,390 52,85 51,111 0,31 z" />
  <path
     style="fill:#8b0012;stroke:none;fill-opacity:1"
     inkscape:connector-curvature="0"
     id="path81"
     d="m 2484.0843,2038.5033 c 0,-5 9,-21 21,-38 40,-59 110,-207 139,-293 38,-117 60,-252 61,-386 1,-118 16,-115 18,4 2,147 -35,332 -96,480 -51,123 -143,274 -143,233 z" />
  <path
     style="fill:#8b0012;stroke:none;fill-opacity:1"
     inkscape:connector-curvature="0"
     id="path119"
     d="m 2674.0843,1187.5033 c -19,-16 -21,-22 -11,-40 20,-38 81,-23 81,20 0,9 -9,22 -19,28 -25,13 -25,13 -51,-8 z m 48,-25 c 2,-11 -3,-17 -17,-17 -23,0 -35,15 -26,31 10,15 39,6 43,-14 z" />
  <path
     style="fill:#8b0012;stroke:none;fill-opacity:1"
     inkscape:connector-curvature="0"
     id="path121"
     d="m 2675.0843,1075.5033 c -55,-200.00001 -128,-345.00001 -249,-493.00001 -65,-80 -66,-100 -1,-24 64,73 119,158 168,255 50,99 104,255.00001 99,285.00001 -3,16 -7,10 -17,-23 z" />
  <path
     style="fill:#8b0012;stroke:none;fill-opacity:1"
     inkscape:connector-curvature="0"
     id="path143"
     d="m 2263.0843,469.50329 c -18,-22 1,-49 36,-49 35,0 54,27 36,49 -8,9 -24,16 -36,16 -12,0 -28,-7 -36,-16 z m 51,-9 c 13,-16 6,-35 -15,-35 -18,0 -28,17 -21,35 7,19 20,19 36,0 z" />
  <path
     style="fill:#8b0012;stroke:none;fill-opacity:1"
     inkscape:connector-curvature="0"
     id="path147"
     d="m 534.08427,435.50329 c -24,-24 -24,-29 -4,-58 9,-14 26,-22 43,-22 28,0 61,26 61,48 0,19 -38,52 -60,52 -11,0 -29,-9 -40,-20 z m 68,-12 c 18,-18 15,-36 -7,-48 -23,-12 -47,-5 -55,17 -13,33 36,57 62,31 z" />
  <path
     style="fill:#8b0012;stroke:none;fill-opacity:1"
     inkscape:connector-curvature="0"
     id="path153"
     d="m 2161.0843,345.50329 c -93,-66 -184,-112 -304,-154 -380,-131.999998 -808,-87 -1143.00003,120 -40,24 -75,42 -79,39 -9,-10 36,-40 139,-94 171,-89 314.00003,-131 517.00003,-151 234,-22.999998 508,27 718,133 74,37 235,139 235,150 0,13 -14,6 -83,-43 z" />
</svg>
